<svg xmlns="http://www.w3.org/2000/svg" width="542pt" height="260pt" viewBox="0 0 542.39 260">
    <g class="graph">
        <path fill="#fff" stroke="transparent" d="M0 260V0h542.39v260z"/>
        <g class="node" transform="translate(4 256)">
            <ellipse cx="389.39" cy="-234" fill="none" stroke="#000" rx="70.69" ry="18"/>
            <text x="389.39" y="-230.3" font-family="Times,serif" font-size="14" text-anchor="middle">:core:domain</text>
        </g>
        <g class="node" transform="translate(4 256)">
            <ellipse cx="469.39" cy="-18" fill="none" stroke="#000" rx="64.99" ry="18"/>
            <text x="469.39" y="-14.3" font-family="Times,serif" font-size="14" text-anchor="middle">:core:model</text>
        </g>
        <g stroke="#000" class="edge">
            <path fill="none" d="M405.65 40c6.83 10.08 15.08 23.33 20.74 36 20.19 45.14 34.27 101.23 41.47 133.89"/>
            <path d="m471.36 209.5-1.32 10.51-5.53-9.04z"/>
        </g>
        <g class="node" transform="translate(4 256)">
            <ellipse cx="338.39" cy="-162" fill="none" stroke="#000" rx="74.99" ry="18"/>
            <text x="338.39" y="-158.3" font-family="Times,serif" font-size="14" text-anchor="middle">:core:network</text>
        </g>
        <g stroke="red" stroke-width="2" class="edge">
            <path fill="none" d="M381.05 39.95c-6.14 8.42-13.68 18.77-20.47 28.08"/>
            <path fill="red" d="m363.34 70.19-8.71 6.02 3.06-10.14z"/>
        </g>
        <g stroke="#000" class="edge">
            <path fill="none" d="M357.94 111.85c23.04 24.98 66.4 71.98 92.93 100.73"/>
            <path d="m453.66 210.45 4.21 9.73-9.35-4.98z"/>
        </g>
        <g class="node" transform="translate(4 256)">
            <ellipse cx="75.39" cy="-18" fill="none" stroke="#000" rx="75.29" ry="18"/>
            <text x="75.39" y="-14.3" font-family="Times,serif" font-size="14" text-anchor="middle">:core:common</text>
        </g>
        <g stroke="#000" class="edge">
            <path fill="none" d="M295.82 108.15c-29.2 9.17-67.11 22.81-98.43 39.85-34.07 18.54-69.05 46.22-91.98 65.78"/>
            <path d="m107.67 216.45-9.85 3.88 5.28-9.18z"/>
        </g>
        <g class="node" transform="translate(4 256)">
            <ellipse cx="283.39" cy="-90" fill="none" stroke="#000" rx="81.49" ry="18"/>
            <text x="283.39" y="-86.3" font-family="Times,serif" font-size="14" text-anchor="middle">:core:datastore</text>
        </g>
        <g stroke="red" stroke-width="2" class="edge">
            <path fill="none" d="M329.08 111.95c-6.69 8.51-14.92 18.98-22.29 28.37"/>
            <path fill="red" d="m309.52 142.51-8.94 5.7 3.43-10.02z"/>
        </g>
        <g stroke="#000" class="edge">
            <path fill="none" d="M326.84 181.85c29.25 11 69.23 26.05 100.04 37.64"/>
            <path d="m428.41 216.33 8.12 6.8-10.59-.25z"/>
        </g>
        <g stroke="#000" class="edge">
            <path fill="none" d="M244.8 181.33c-33.03 11.12-78.93 26.57-114 38.37"/>
            <path d="m131.81 223.05-10.59-.13 8.36-6.5z"/>
        </g>
        <g class="node" transform="translate(4 256)">
            <ellipse cx="277.39" cy="-18" fill="none" stroke="#000" rx="108.58" ry="18"/>
            <text x="277.39" y="-14.3" font-family="Times,serif" font-size="14" text-anchor="middle">:core:datastore-proto</text>
        </g>
        <g stroke="red" stroke-width="2" class="edge">
            <path fill="none" d="M285.91 184.3c-.66 7.72-1.46 16.99-2.19 25.59"/>
            <path fill="red" d="m287.2 210.23-4.34 9.67-2.63-10.27z"/>
        </g>
    </g>
</svg>
