<svg xmlns="http://www.w3.org/2000/svg" width="2137pt" height="476pt" viewBox="0 0 2136.96 476">
    <g class="graph">
        <path fill="#fff" stroke="transparent" d="M0 476V0h2136.96v476z"/>
        <g class="node" transform="translate(4 472)">
            <ellipse cx="1119.96" cy="-450" fill="none" stroke="#000" rx="30.59" ry="18"/>
            <text x="1119.96" y="-446.3" font-family="Times,serif" font-size="14" text-anchor="middle">:app</text>
        </g>
        <g class="node" transform="translate(4 472)">
            <ellipse cx="825.96" cy="-306" fill="none" stroke="#000" rx="89.08" ry="18"/>
            <text x="825.96" y="-302.3" font-family="Times,serif" font-size="14" text-anchor="middle">:feature:common</text>
        </g>
        <g stroke="#000" class="edge">
            <path fill="none" d="M1093.4 23.83C987.88 26.99 643.41 40.01 610.96 76c-43.41 48.12 50.06 70.74 128.06 81.01"/>
            <path d="m739.93 153.6 9.49 4.72-10.36 2.22z"/>
        </g>
        <g class="node" transform="translate(4 472)">
            <ellipse cx="1173.96" cy="-378" fill="none" stroke="#000" rx="79.89" ry="18"/>
            <text x="1173.96" y="-374.3" font-family="Times,serif" font-size="14" text-anchor="middle">:feature:splash</text>
        </g>
        <g stroke="#000" class="edge">
            <path fill="none" d="m1136.21 38.88 22.49 29.16"/>
            <path d="M1161.66 66.15 1165 76.2l-8.88-5.78z"/>
        </g>
        <g class="node" transform="translate(4 472)">
            <ellipse cx="280.96" cy="-378" fill="none" stroke="#000" rx="73.39" ry="18"/>
            <text x="280.96" y="-374.3" font-family="Times,serif" font-size="14" text-anchor="middle">:feature:login</text>
        </g>
        <g stroke="#000" class="edge">
            <path fill="none" d="M1093.38 23.81C990.93 26.81 650.59 39.1 371.96 76c-7.73 1.02-15.8 2.31-23.78 3.71"/>
            <path d="m348.62 83.18-10.46-1.65 9.21-5.23z"/>
        </g>
        <g class="node" transform="translate(4 472)">
            <ellipse cx="484.96" cy="-378" fill="none" stroke="#000" rx="75.29" ry="18"/>
            <text x="484.96" y="-374.3" font-family="Times,serif" font-size="14" text-anchor="middle">:feature:home</text>
        </g>
        <g stroke="#000" class="edge">
            <path fill="none" d="M1093.65 24.96C1010.79 30.53 773.56 47.89 577.96 76c-7.67 1.1-15.67 2.41-23.61 3.8"/>
            <path d="m554.83 83.27-10.46-1.67 9.22-5.22z"/>
        </g>
        <g class="node" transform="translate(4 472)">
            <ellipse cx="1498.96" cy="-378" fill="none" stroke="#000" rx="67.69" ry="18"/>
            <text x="1498.96" y="-374.3" font-family="Times,serif" font-size="14" text-anchor="middle">:feature:tool</text>
        </g>
        <g stroke="red" stroke-width="2" class="edge">
            <path fill="none" d="M1153.29 27.66c54.2 8.72 173.63 28.41 273.67 48.34 5.38 1.07 10.97 2.23 16.57 3.43"/>
            <path fill="red" d="m1444.53 76.06 9.03 5.54-10.51 1.3z"/>
        </g>
        <g class="node" transform="translate(4 472)">
            <ellipse cx="710.96" cy="-378" fill="none" stroke="#000" rx="94.78" ry="18"/>
            <text x="710.96" y="-374.3" font-family="Times,serif" font-size="14" text-anchor="middle">:feature:download</text>
        </g>
        <g stroke="#000" class="edge">
            <path fill="none" d="M1094.87 27.98c-62.18 10.64-209.85 35.91-301.69 51.63"/>
            <path d="m793.54 83.1-10.45-1.76 9.27-5.14z"/>
        </g>
        <g class="node" transform="translate(4 472)">
            <ellipse cx="1342.96" cy="-378" fill="none" stroke="#000" rx="70.69" ry="18"/>
            <text x="1342.96" y="-374.3" font-family="Times,serif" font-size="14" text-anchor="middle">:feature:user</text>
        </g>
        <g stroke="#000" class="edge">
            <path fill="none" d="M1150.41 31.3c35.36 11.11 98.83 31.03 144.07 45.23"/>
            <path d="m1295.63 73.22 8.5 6.34-10.59.34z"/>
        </g>
        <g class="node" transform="translate(4 472)">
            <ellipse cx="1671.96" cy="-378" fill="none" stroke="#000" rx="87.99" ry="18"/>
            <text x="1671.96" y="-374.3" font-family="Times,serif" font-size="14" text-anchor="middle">:feature:settings</text>
        </g>
        <g stroke="#000" class="edge">
            <path fill="none" d="M1153.91 25.86c73.03 7.1 265.96 26.68 426.05 50.14 7.59 1.11 15.51 2.36 23.39 3.67"/>
            <path d="m1604.02 76.24 9.28 5.11-10.44 1.79z"/>
        </g>
        <g class="node" transform="translate(4 472)">
            <ellipse cx="109.96" cy="-378" fill="none" stroke="#000" rx="79.09" ry="18"/>
            <text x="109.96" y="-374.3" font-family="Times,serif" font-size="14" text-anchor="middle">:feature:player</text>
        </g>
        <g stroke="#000" class="edge">
            <path fill="none" d="M1093.22 23.31C976.62 24.78 550.65 32.98 202.96 76c-7.58.94-15.48 2.13-23.31 3.45"/>
            <path d="m180.25 82.89-10.45-1.72 9.25-5.17z"/>
        </g>
        <g class="node" transform="translate(4 472)">
            <ellipse cx="930.96" cy="-378" fill="none" stroke="#000" rx="107.48" ry="18"/>
            <text x="930.96" y="-374.3" font-family="Times,serif" font-size="14" text-anchor="middle">:feature:authorspace</text>
        </g>
        <g stroke="#000" class="edge">
            <path fill="none" d="M1098.86 32.3c-28.48 10.54-75.71 28.04-112.18 41.54"/>
            <path d="m987.78 77.17-10.59.19 8.16-6.76z"/>
        </g>
        <g class="node" transform="translate(4 472)">
            <ellipse cx="1098.96" cy="-234" fill="none" stroke="#000" rx="77.99" ry="18"/>
            <text x="1098.96" y="-230.3" font-family="Times,serif" font-size="14" text-anchor="middle">:core:analytics</text>
        </g>
        <g stroke="#000" class="edge">
            <path fill="none" d="M1154.66 23.13c123.05.81 575.97 6.94 618.3 52.87 10.84 11.77 10.22 23.69 0 36-9.64 11.6-429.12 84.05-599.34 113.03"/>
            <path d="m1174.2 228.49-10.45-1.78 9.27-5.13z"/>
        </g>
        <g class="node" transform="translate(4 472)">
            <ellipse cx="1761.96" cy="-18" fill="none" stroke="#000" rx="75.29" ry="18"/>
            <text x="1761.96" y="-14.3" font-family="Times,serif" font-size="14" text-anchor="middle">:core:common</text>
        </g>
        <g stroke="#000" class="edge">
            <path fill="none" d="M1154.48 23.88c125.17 3.78 599.42 19.99 745.48 52.12 108.26 23.82 233-21.85 233 89v146c0 63.12-191.23 109.11-297.61 129.8"/>
            <path d="m1835.81 444.28-10.48-1.55 9.16-5.33z"/>
        </g>
        <g class="node" transform="translate(4 472)">
            <ellipse cx="1407.96" cy="-90" fill="none" stroke="#000" rx="81.49" ry="18"/>
            <text x="1407.96" y="-86.3" font-family="Times,serif" font-size="14" text-anchor="middle">:core:datastore</text>
        </g>
        <g stroke="#000" class="edge">
            <path fill="none" d="M1093.29 23.43C919.82 26.02 67.74 40.49 25.96 76c-30.83 26.19-19 48.55-19 89v74c0 86.47 89.41 66.85 173 89 109.18 28.94 875.58 46.18 1141.43 51.35"/>
            <path d="m1321.47 375.85 9.93 3.69-10.07 3.31z"/>
        </g>
        <g class="node" transform="translate(4 472)">
            <ellipse cx="825.96" cy="-234" fill="none" stroke="#000" rx="100.98" ry="18"/>
            <text x="825.96" y="-230.3" font-family="Times,serif" font-size="14" text-anchor="middle">:core:designsystem</text>
        </g>
        <g stroke="#000" class="edge">
            <path fill="none" d="M1093.12 22.87C961.64 22.61 452.4 24.93 404.96 76c-10.89 11.72-9.3 22.98 0 36 14.33 20.07 186.33 65.04 210 72 47.8 14.06 102.31 27.47 144.48 37.28"/>
            <path d="m760.38 217.9 8.95 5.67-10.53 1.15z"/>
        </g>
        <g class="node" transform="translate(4 472)">
            <ellipse cx="1195.96" cy="-162" fill="none" stroke="#000" rx="74.99" ry="18"/>
            <text x="1195.96" y="-158.3" font-family="Times,serif" font-size="14" text-anchor="middle">:core:network</text>
        </g>
        <g stroke="#000" class="edge">
            <path fill="none" d="M1154.61 23.06c125.01.54 591.77 5.76 635.35 52.94 10.85 11.75 9.21 22.92 0 36-13.66 19.4-379.41 136.78-402 144-43.15 13.79-92.45 27.62-129.74 37.69"/>
            <path d="m1259.09 297.08-10.56-.78 8.75-5.98z"/>
        </g>
        <g class="node" transform="translate(4 472)">
            <ellipse cx="1851.96" cy="-306" fill="none" stroke="#000" rx="81.49" ry="18"/>
            <text x="1851.96" y="-302.3" font-family="Times,serif" font-size="14" text-anchor="middle">:core:download</text>
        </g>
        <g stroke="#000" class="edge">
            <path fill="none" d="M1154.62 22.74c135.61-.82 677.01-.71 727.34 53.26 16.08 17.25 5.23 43.92-6.99 63.57"/>
            <path d="m1877.79 141.64-8.44 6.4 2.61-10.27z"/>
        </g>
        <g class="node" transform="translate(4 472)">
            <ellipse cx="1065.96" cy="-306" fill="none" stroke="#000" rx="45.49" ry="18"/>
            <text x="1065.96" y="-302.3" font-family="Times,serif" font-size="14" text-anchor="middle">:core:ui</text>
        </g>
        <g stroke="#000" class="edge">
            <path fill="none" d="M1111.24 38.81c-7.53 10.1-16.66 23.77-22.28 37.19-8.29 19.76-13.13 43.56-15.85 61.58"/>
            <path d="m1076.55 138.27-4.84 9.43-2.09-10.38z"/>
        </g>
        <g class="node" transform="translate(4 472)">
            <ellipse cx="1657.96" cy="-234" fill="none" stroke="#000" rx="57.39" ry="18"/>
            <text x="1657.96" y="-230.3" font-family="Times,serif" font-size="14" text-anchor="middle">:core:data</text>
        </g>
        <g stroke="#000" class="edge">
            <path fill="none" d="M1154.83 22.86c131.67-.27 641.62 2.01 689.13 53.14 10.89 11.72 8.62 22.52 0 36-20.58 32.16-45.86 15.39-78 36-29.98 19.22-60.5 46.44-80.66 65.7"/>
            <path d="m1687.73 216.22-9.62 4.44 4.75-9.47z"/>
        </g>
        <g stroke="#000" class="edge">
            <path fill="none" d="M1120.49 106.56c-60.2 12.11-154.83 31.14-219.63 44.18"/>
            <path d="m901.22 154.24-10.5-1.46 9.12-5.41z"/>
        </g>
        <g stroke="#000" class="edge">
            <path fill="none" d="M1223.47 108.96c49.06 17.57 125.36 52.73 164.49 111.04 27.13 40.45 28.61 99.41 26.67 133.62"/>
            <path d="m1418.11 354.07-4.19 9.73-2.79-10.22z"/>
        </g>
        <g stroke="#000" class="edge">
            <path fill="none" d="M1172.47 112.13c-7.5 20.54-23.04 54.37-48.51 71.87-31.34 21.53-123.21 35.78-195.99 44.03"/>
            <path d="m928.15 231.53-10.32-2.38 9.55-4.58z"/>
        </g>
        <g stroke="#000" class="edge">
            <path fill="none" d="M1152.91 111.24c-15.36 9.95-35.14 22.77-51.54 33.4"/>
            <path d="m1102.96 147.78-10.3 2.5 6.49-8.37z"/>
        </g>
        <g stroke="#000" class="edge">
            <path fill="none" d="M346.59 103.93c18.74 2.66 39.39 5.54 58.37 8.07 118.04 15.72 254.73 32.52 340.53 42.89"/>
            <path d="m745.93 151.41 9.51 4.68-10.35 2.27z"/>
        </g>
        <g stroke="#000" class="edge">
            <path fill="none" d="M300.9 111.67c19.34 19.47 53.65 51.62 88.06 72.33 149.41 89.93 195.12 104.57 365 144 105.65 24.52 414.77 41.76 568.73 49.07"/>
            <path d="m1323.23 373.59 9.82 3.97-10.15 3.03z"/>
        </g>
        <g stroke="#000" class="edge">
            <path fill="none" d="M324.29 109.21c28.59 10.45 68.17 25.14 102.67 38.79 38.52 15.25 46.19 24.51 86 36 73.15 21.12 158.38 34.78 222.03 42.94"/>
            <path d="m735.53 223.48 9.48 4.72-10.36 2.22z"/>
        </g>
        <g stroke="#000" class="edge">
            <path fill="none" d="M320.1 109.84c20.85 9.53 47.34 22.96 68.86 38.16 19 13.42 18.01 24.09 38 36 88.38 52.66 119.29 50.96 220 72 163.71 34.2 359.36 46.38 468.57 50.69"/>
            <path d="m1115.97 303.2 9.86 3.88-10.13 3.12z"/>
        </g>
        <g stroke="#000" class="edge">
            <path fill="none" d="M345.28 104.41c19.06 2.74 40.21 5.54 59.68 7.59 231.71 24.36 291.03 14.15 523 36 29.7 2.8 62.8 6.71 89.56 10.08"/>
            <path d="m1017.97 154.61 9.48 4.73-10.36 2.22z"/>
        </g>
        <g stroke="#000" class="edge">
            <path fill="none" d="M544.12 106.32c58.78 12.07 151.98 31.2 215.88 44.32"/>
            <path d="m760.9 147.25 9.09 5.44-10.5 1.42z"/>
        </g>
        <g stroke="#000" class="edge">
            <path fill="none" d="M497.35 112.08c9.88 18.98 27.61 49.85 48.61 71.92 38 39.94 50.02 51.01 101 72 230.12 94.77 526.99 117.85 674.08 123.36"/>
            <path d="m1321.49 375.87 9.87 3.86-10.11 3.14z"/>
        </g>
        <g stroke="#000" class="edge">
            <path fill="none" d="M524.8 109.93c61.98 25.81 189.13 78.76 258.13 107.49"/>
            <path d="m784.38 214.23 7.88 7.07-10.58-.61z"/>
        </g>
        <g stroke="#000" class="edge">
            <path fill="none" d="M506 111.63C542 145.6 629.91 222.56 719.96 256c70.83 26.3 279.87 41.84 397.39 48.73"/>
            <path d="m1117.6 301.24 9.78 4.07-10.18 2.92z"/>
        </g>
        <g stroke="#000" class="edge">
            <path fill="none" d="M551.61 104.04c19.04 2.67 40.04 5.52 59.35 7.96 140.67 17.79 176.16 19.57 317 36 29.39 3.43 62.19 7.35 88.85 10.56"/>
            <path d="m1017.58 155.13 9.51 4.67-10.35 2.28z"/>
        </g>
        <g stroke="#000" class="edge">
            <path fill="none" d="M1454.89 106.76c-9.23 1.97-18.85 3.83-27.93 5.24-181.21 28.08-228.37 19.66-411 36-31.49 2.82-65.96 5.95-96.59 8.76"/>
            <path d="m919.42 160.27-10.28-2.57 9.64-4.4z"/>
        </g>
        <g stroke="#000" class="edge">
            <path fill="none" d="M1452.68 106.05c-42.62 9.78-105.17 25.07-158.72 41.95-43.07 13.57-51.28 24.72-95 36-89.64 23.12-194.29 36.95-269.21 44.65"/>
            <path d="m929.69 232.18-10.31-2.48 9.6-4.49z"/>
        </g>
        <g stroke="red" stroke-width="2" class="edge">
            <path fill="none" d="M1552.37 106.29c8.85 1.95 17.98 3.92 26.59 5.71 69.95 14.51 150.15 29.7 206.19 40.08"/>
            <path fill="red" d="m1786.13 148.7 9.2 5.26-10.47 1.62z"/>
        </g>
        <g stroke="#000" class="edge">
            <path fill="none" d="M1454 106.5c-8.97 1.95-18.27 3.87-27.04 5.5-107.38 19.95-234.04 37.3-303.94 46.35"/>
            <path d="m1123.08 161.87-10.37-2.2 9.47-4.74z"/>
        </g>
        <g class="node" transform="translate(4 472)">
            <ellipse cx="1303.96" cy="-234" fill="none" stroke="#000" rx="70.69" ry="18"/>
            <text x="1303.96" y="-230.3" font-family="Times,serif" font-size="14" text-anchor="middle">:core:domain</text>
        </g>
        <g stroke="#000" class="edge">
            <path fill="none" d="M1480.59 111.29c-34.88 25.4-102.3 74.49-141.78 103.24"/>
            <path d="m1340.51 217.63-10.15 3.05 6.03-8.71z"/>
        </g>
        <g stroke="#000" class="edge">
            <path fill="none" d="M741.92 111.41c15.71 9.57 35.72 21.74 52.69 32.07"/>
            <path d="m796.44 140.5 6.72 8.19-10.36-2.21z"/>
        </g>
        <g stroke="#000" class="edge">
            <path fill="none" d="M714.06 112.11c-.13 19.28 2.38 50.69 17.9 71.89 10.6 14.48 26.39 25.43 42.21 33.5"/>
            <path d="m775.94 214.46 7.52 7.47-10.54-1.15z"/>
        </g>
        <g stroke="#000" class="edge">
            <path fill="none" d="M781.1 106.94c12.54 1.94 25.58 3.75 37.86 5.06 348.15 37.24 764.95 48.48 945.81 51.74"/>
            <path d="m1765.1 160.24 9.94 3.68-10.06 3.32z"/>
        </g>
        <g stroke="#000" class="edge">
            <path fill="none" d="M778.42 107.51c69.15 13.64 178.33 35.17 241.62 47.65"/>
            <path d="m1021.03 151.79 9.13 5.36-10.48 1.5z"/>
        </g>
        <g class="node" transform="translate(4 472)">
            <ellipse cx="263.96" cy="-162" fill="none" stroke="#000" rx="78.79" ry="18"/>
            <text x="263.96" y="-158.3" font-family="Times,serif" font-size="14" text-anchor="middle">:core:database</text>
        </g>
        <g stroke="#000" class="edge">
            <path fill="none" d="M681.72 110.91c-80.23 38.41-284.39 136.15-372.38 178.28"/>
            <path d="m310.73 292.4-10.53 1.16 7.51-7.47z"/>
        </g>
        <g stroke="#000" class="edge">
            <path fill="none" d="M1295.87 106.56c-9.58 1.97-19.53 3.88-28.91 5.44-119.96 19.98-259.62 35.6-348.15 44.56"/>
            <path d="m919.1 160.04-10.3-2.48 9.6-4.48z"/>
        </g>
        <g stroke="#000" class="edge">
            <path fill="none" d="M1360.99 111.84c18.01 22.81 48.31 65.59 59.97 108.16 12.48 45.61 4.57 101.12-2.25 133.61"/>
            <path d="m1422.05 354.7-5.58 9-1.25-10.52z"/>
        </g>
        <g stroke="#000" class="edge">
            <path fill="none" d="M1307.92 109.13c-26.38 9.95-61.78 24.09-91.96 38.87-28.62 14.01-32.01 25.25-62 36-71.44 25.6-156.19 38.91-221.1 45.78"/>
            <path d="m932.92 233.29-10.3-2.46 9.59-4.5z"/>
        </g>
        <g stroke="#000" class="edge">
            <path fill="none" d="M1326.3 111.44c-26.4 22.04-71.86 63.65-98.34 108.56-11.41 19.33-18.67 43.82-22.93 62.21"/>
            <path d="m1208.45 282.95-5.54 9.03-1.3-10.51z"/>
        </g>
        <g stroke="#000" class="edge">
            <path fill="none" d="m1298.71 107.19-181.55 45.88"/>
            <path d="m1118 156.47-10.55-.94 8.84-5.85z"/>
        </g>
        <g stroke="#000" class="edge">
            <path fill="none" d="M1614.65 106.91c-11.49 1.93-23.44 3.74-34.69 5.09-249.39 29.95-313.58 16.57-564 36-31.81 2.47-66.64 5.55-97.47 8.41"/>
            <path d="m918.48 159.93-10.28-2.56 9.63-4.41z"/>
        </g>
        <g stroke="#000" class="edge">
            <path fill="none" d="M1691.01 112c20.84 25.34 55.95 75.39 55.95 125v74c0 40.14 7.55 86.1 13.13 114.6"/>
            <path d="m1763.56 425.12-1.45 10.49-5.41-9.11z"/>
        </g>
        <g stroke="#000" class="edge">
            <path fill="none" d="M1660.23 112.03c-44.84 48.59-173.5 187.96-225.78 244.6"/>
            <path d="m1436.95 359.08-9.35 4.98 4.21-9.73z"/>
        </g>
        <g stroke="#000" class="edge">
            <path fill="none" d="M1613.7 106.75c-53.79 10.33-133.55 26.03-202.74 41.25-66.96 14.73-82.54 23.8-150 36-113.47 20.52-245.19 35.44-332.86 44.13"/>
            <path d="m928.19 231.63-10.3-2.5 9.61-4.46z"/>
        </g>
        <g stroke="#000" class="edge">
            <path fill="none" d="M1613.57 106.72c-11.17 1.9-22.72 3.75-33.61 5.28-165.48 23.22-362.49 40.88-455.82 48.65"/>
            <path d="m1124.34 164.15-10.25-2.66 9.67-4.32z"/>
        </g>
        <g stroke="#000" class="edge">
            <path fill="none" d="M170.31 106.68c10.8 1.98 22.05 3.86 32.65 5.32 187.5 25.76 408.39 40.93 531.59 48.04"/>
            <path d="m734.93 156.56 9.78 4.06-10.18 2.93z"/>
        </g>
        <g stroke="#000" class="edge">
            <path fill="none" d="M165.3 107.83c40.32 10.28 97.78 25.38 147.66 40.17 49.31 14.63 59.83 24.63 110 36 103.06 23.36 223.32 37.44 306.25 45.16"/>
            <path d="m729.74 225.69 9.64 4.4-10.27 2.57z"/>
        </g>
        <g stroke="#000" class="edge">
            <path fill="none" d="M147.19 110.45c39.35 18.15 106.95 48.91 165.77 73.55 80.99 33.94 98.38 52.48 184 72 115.74 26.38 459.75 43.22 619.61 49.82"/>
            <path d="m1116.98 302.34 9.85 3.9-10.13 3.09z"/>
        </g>
        <g stroke="#000" class="edge">
            <path fill="none" d="M169.79 106.89c10.96 1.99 22.39 3.82 33.17 5.11 320.33 38.36 403.52 8.81 725 36 29.83 2.52 63.07 6.44 89.88 9.88"/>
            <path d="m1018.32 154.41 9.46 4.76-10.36 2.19z"/>
        </g>
        <g stroke="#000" class="edge">
            <path fill="none" d="M126.04 111.79c26.92 37.41 91.96 127.79 123.78 172"/>
            <path d="m252.71 281.83 3 10.16-8.68-6.07z"/>
        </g>
        <g stroke="#000" class="edge">
            <path fill="none" d="M910.07 111.59c-13.99 9.33-31.64 21.09-46.81 31.21"/>
            <path d="m864.92 145.9-10.26 2.63 6.38-8.46z"/>
        </g>
        <g stroke="#000" class="edge">
            <path fill="none" d="M938.17 112.27c2.59 19.14 3.82 50.16-10.21 71.73-9.62 14.77-24.8 25.74-40.37 33.75"/>
            <path d="m888.95 220.98-10.54 1.14 7.52-7.46z"/>
        </g>
        <g stroke="#000" class="edge">
            <path fill="none" d="M938.75 112.19c8.18 32.95 30.61 105.15 77.21 143.81 29.58 24.54 69.98 37.73 105.38 44.81"/>
            <path d="m1122 297.37 9.18 5.28-10.47 1.6z"/>
        </g>
        <g stroke="#000" class="edge">
            <path fill="none" d="M966.27 111.24c20.35 10.55 46.94 24.34 68.1 35.31"/>
            <path d="m1036.1 143.5 7.26 7.71-10.48-1.49z"/>
        </g>
        <g stroke="#000" class="edge">
            <path fill="none" d="M1470.41 394.56c63.14 12.48 163.51 32.33 229.47 45.37"/>
            <path d="m1700.62 436.51 9.13 5.38-10.49 1.49z"/>
        </g>
        <g class="node" transform="translate(4 472)">
            <ellipse cx="1195.96" cy="-18" fill="none" stroke="#000" rx="64.99" ry="18"/>
            <text x="1195.96" y="-14.3" font-family="Times,serif" font-size="14" text-anchor="middle">:core:model</text>
        </g>
        <g stroke="#000" class="edge">
            <path fill="none" d="M1368.54 397.33c-34.43 11.38-82.6 27.28-118.64 39.18"/>
            <path d="m1250.68 439.94-10.6-.19 8.4-6.46z"/>
        </g>
        <g class="node" transform="translate(4 472)">
            <ellipse cx="1407.96" cy="-18" fill="none" stroke="#000" rx="108.58" ry="18"/>
            <text x="1407.96" y="-14.3" font-family="Times,serif" font-size="14" text-anchor="middle">:core:datastore-proto</text>
        </g>
        <g stroke="red" stroke-width="2" class="edge">
            <path fill="none" d="M1411.96 400.3v25.59"/>
            <path fill="red" d="m1415.46 425.9-3.5 10-3.5-10z"/>
        </g>
        <g stroke="#000" class="edge">
            <path fill="none" d="M1263.89 319.35c61.54 8.71 156.95 23.99 238.07 44.65 77.27 19.69 164.51 50.93 216.83 70.68"/>
            <path d="m1720.35 431.53 8.11 6.82-10.59-.28z"/>
        </g>
        <g stroke="red" stroke-width="2" class="edge">
            <path fill="none" d="M1242.09 324.91c33.45 11.05 80.41 26.55 116.49 38.46"/>
            <path fill="red" d="m1360.04 360.17 8.4 6.46-10.59.19z"/>
        </g>
        <g stroke="#000" class="edge">
            <path fill="none" d="M1199.96 328.13v97.48"/>
            <path d="m1203.46 425.81-3.5 10-3.5-10z"/>
        </g>
        <g stroke="#000" class="edge">
            <path fill="none" d="M1846.86 184.35c-5.11 10.2-11.36 23.45-15.9 35.65-27.15 72.9-49.04 162.29-59.07 206.14"/>
            <path d="m1775.27 427.04-5.62 8.98-1.2-10.52z"/>
        </g>
        <g stroke="red" stroke-width="2" class="edge">
            <path fill="none" d="M1815.29 181.67c-31.42 11.34-74.9 27.03-107.54 38.8"/>
            <path fill="red" d="M1708.59 223.89 1698 224l8.22-6.69z"/>
        </g>
        <g class="node" transform="translate(4 472)">
            <ellipse cx="1877.96" cy="-90" fill="none" stroke="#000" rx="68.79" ry="18"/>
            <text x="1877.96" y="-86.3" font-family="Times,serif" font-size="14" text-anchor="middle">:core:ffmpeg</text>
        </g>
        <g stroke="#000" class="edge">
            <path fill="none" d="M1850.12 183.98c-9.35 29.95-25.01 93.74-8.16 144.02 3.46 10.33 9.81 20.26 16.45 28.67"/>
            <path d="m1861.28 354.63 3.78 9.9-9.13-5.38z"/>
        </g>
        <g class="node" transform="translate(4 472)">
            <ellipse cx="1973.96" cy="-162" fill="none" stroke="#000" rx="126.98" ry="18"/>
            <text x="1973.96" y="-158.3" font-family="Times,serif" font-size="14" text-anchor="middle">:okdownload:okdownload</text>
        </g>
        <g stroke="#000" class="edge">
            <path fill="none" d="M1870.43 183.85c21.35 24.84 61.41 71.47 86.15 100.27"/>
            <path d="m1959.26 281.87 3.86 9.86-9.17-5.3z"/>
        </g>
        <g stroke="#000" class="edge">
            <path fill="none" d="M1077.94 183.95c3.76 7.96 8.32 17.64 12.52 26.54"/>
            <path d="m1093.71 209.19 1.1 10.53-7.43-7.55z"/>
        </g>
        <g stroke="#000" class="edge">
            <path fill="none" d="M1034.54 177.33c-38.02 11.09-99.09 28.9-144.63 42.18"/>
            <path d="m890.73 222.92-10.58-.56 8.62-6.16z"/>
        </g>
        <g stroke="#000" class="edge">
            <path fill="none" d="M1047.84 181.87c-11.88 9.38-25.38 22.63-31.88 38.13-6.2 14.75-5.87 21.12 0 36 30.66 77.75 108.09 142.9 152.11 175.18"/>
            <path d="m1170.34 428.51 6.07 8.69-10.16-3.01z"/>
        </g>
        <g stroke="#000" class="edge">
            <path fill="none" d="M1668.64 256.3c11.77 29.9 37.48 92.92 64.32 143.7 4.88 9.25 10.77 19.05 16.22 27.68"/>
            <path d="m1752.17 425.87 2.46 10.31-8.35-6.53z"/>
        </g>
        <g stroke="#000" class="edge">
            <path fill="none" d="M1652.74 256.03c-11.75 20.11-33.91 53.2-61.78 71.97-30.71 20.68-69.65 33.45-103.37 41.26"/>
            <path d="m1488.3 372.69-10.52-1.25 9-5.58z"/>
        </g>
        <g stroke="red" stroke-width="2" class="edge">
            <path fill="none" d="M1612.04 246.85c-18.55 2.9-39.77 6.19-59.08 9.15-97.22 14.88-209.56 31.68-280.91 42.3"/>
            <path fill="red" d="m1272.23 301.81-10.4-1.99 9.37-4.93z"/>
        </g>
        <g stroke="#000" class="edge">
            <path fill="none" d="M1606.6 242.67c-55.33 3.62-142.86 9.19-218.64 13.33-385.06 21.05-844.87 41.26-1033.15 49.32"/>
            <path d="m354.84 308.83-10.14-3.07 9.84-3.93z"/>
        </g>
        <g stroke="#000" class="edge">
            <path fill="none" d="M1283.18 255.06c-14.71 9.54-33.57 21.76-49.61 32.15"/>
            <path d="m1235.29 290.27-10.3 2.5 6.49-8.37z"/>
        </g>
        <g stroke="#000" class="edge">
            <path fill="none" d="M1305.04 256.3c-3.5 18.37-10.27 47.96-21.08 71.7-17.07 37.46-44.92 76.12-63.83 100.34"/>
            <path d="m1222.8 430.61-8.95 5.67 3.46-10.02z"/>
        </g>
        <g stroke="#000" class="edge">
            <path fill="none" d="M1855.92 398.71c-16.15 9.75-37.12 22.4-54.75 33.04"/>
            <path d="m1802.67 434.93-10.37 2.17 6.76-8.16z"/>
        </g>
        <g stroke="#000" class="edge">
            <path fill="none" d="M1979.44 328.11c.73 19.88-1.29 52.43-19.48 71.89-27.91 29.85-70.85 43.48-109.25 49.49"/>
            <path d="m1850.93 452.99-10.39-2.07 9.42-4.86z"/>
        </g>
        <g stroke="#000" class="edge">
            <path fill="none" d="M326.94 322.08c11.28 2.04 23 4.09 34.02 5.92 286.48 47.51 629.42 95.99 771.86 115.76"/>
            <path d="m1133.71 440.35 9.43 4.84-10.39 2.1z"/>
        </g>
    </g>
</svg>
