<svg xmlns="http://www.w3.org/2000/svg" width="940" height="332pt" viewBox="0 0 705 332">
    <g class="graph">
        <path fill="#fff" stroke="transparent" d="M0 332V0h705v332z"/>
        <g class="node" transform="translate(4 328)">
            <ellipse cx="193.81" cy="-306" fill="none" stroke="#000" rx="81.49" ry="18"/>
            <text x="193.81" y="-302.3" font-family="Times,serif" font-size="14" text-anchor="middle">:core:download</text>
        </g>
        <g class="node" transform="translate(4 328)">
            <ellipse cx="219.81" cy="-18" fill="none" stroke="#000" rx="75.29" ry="18"/>
            <text x="219.81" y="-14.3" font-family="Times,serif" font-size="14" text-anchor="middle">:core:common</text>
        </g>
        <g stroke="#000" class="edge">
            <path fill="none" d="M147.31 36.21c-22.86 8.2-48.69 20.87-66.5 39.79-57.33 60.91-105.93 113.64-55 180 15.36 20.01 74.4 34.1 124.05 42.71"/>
            <path d="m150.69 295.3 9.28 5.11-10.44 1.79z"/>
        </g>
        <g class="node" transform="translate(4 328)">
            <ellipse cx="99.81" cy="-90" fill="none" stroke="#000" rx="68.79" ry="18"/>
            <text x="99.81" y="-86.3" font-family="Times,serif" font-size="14" text-anchor="middle">:core:ffmpeg</text>
        </g>
        <g stroke="#000" class="edge">
            <path fill="none" d="M169.5 38.94C136.51 59.34 83.73 98.08 61.81 148c-6.43 14.65-5.26 20.89 0 36 3.63 10.42 10.25 20.33 17.18 28.7"/>
            <path d="m81.64 210.41 4.01 9.81-9.25-5.17z"/>
        </g>
        <g class="node" transform="translate(4 328)">
            <ellipse cx="367.81" cy="-234" fill="none" stroke="#000" rx="57.39" ry="18"/>
            <text x="367.81" y="-230.3" font-family="Times,serif" font-size="14" text-anchor="middle">:core:data</text>
        </g>
        <g stroke="red" stroke-width="2" class="edge">
            <path fill="none" d="M235.14 38.02c27.45 11.04 64.83 26.08 93.56 37.63"/>
            <path fill="red" d="m330.11 72.45 7.97 6.98-10.58-.49z"/>
        </g>
        <g class="node" transform="translate(4 328)">
            <ellipse cx="513.81" cy="-234" fill="none" stroke="#000" rx="70.69" ry="18"/>
            <text x="513.81" y="-230.3" font-family="Times,serif" font-size="14" text-anchor="middle">:core:domain</text>
        </g>
        <g stroke="#000" class="edge">
            <path fill="none" d="M253.55 35.19c56.54 12.37 143.84 31.47 202.46 44.29"/>
            <path d="m456.87 76.09 9.02 5.55-10.52 1.28z"/>
        </g>
        <g class="node" transform="translate(4 328)">
            <ellipse cx="193.81" cy="-162" fill="none" stroke="#000" rx="126.98" ry="18"/>
            <text x="193.81" y="-158.3" font-family="Times,serif" font-size="14" text-anchor="middle">:okdownload:okdownload</text>
        </g>
        <g stroke="#000" class="edge">
            <path fill="none" d="M197.81 40.13v97.48"/>
            <path d="m201.31 137.81-3.5 10-3.5-10z"/>
        </g>
        <g stroke="#000" class="edge">
            <path fill="none" d="M130.74 254.71c16.87 9.84 38.8 22.63 57.14 33.33"/>
            <path d="m189.68 285.04 6.88 8.06-10.41-2.01z"/>
        </g>
        <g stroke="#000" class="edge">
            <path fill="none" d="M368.35 112.09c-4.76 19.56-15.02 51.52-34.54 71.91-25.56 26.71-49.82 8.92-75 36-16.02 17.24-25.03 42.67-29.88 61.94"/>
            <path d="m232.29 282.96-5.65 8.96-1.18-10.53z"/>
        </g>
        <g class="node" transform="translate(4 328)">
            <ellipse cx="602.81" cy="-90" fill="none" stroke="#000" rx="78.79" ry="18"/>
            <text x="602.81" y="-86.3" font-family="Times,serif" font-size="14" text-anchor="middle">:core:database</text>
        </g>
        <g stroke="#000" class="edge">
            <path fill="none" d="M414.77 106.07c7.67 1.97 15.59 4.01 23.04 5.93 62.22 16.01 93.16-7.97 140 36 16.98 15.93 24.03 41.9 26.96 61.69"/>
            <path d="m608.25 209.31-2.27 10.35-4.68-9.5z"/>
        </g>
        <g class="node" transform="translate(4 328)">
            <ellipse cx="386.81" cy="-90" fill="none" stroke="#000" rx="81.49" ry="18"/>
            <text x="386.81" y="-86.3" font-family="Times,serif" font-size="14" text-anchor="middle">:core:datastore</text>
        </g>
        <g stroke="#000" class="edge">
            <path fill="none" d="M374.1 112.13c3.24 24.2 9.19 68.66 13.05 97.48"/>
            <path d="m390.65 209.43-2.14 10.38-4.79-9.45z"/>
        </g>
        <g class="node" transform="translate(4 328)">
            <ellipse cx="489.81" cy="-162" fill="none" stroke="#000" rx="74.99" ry="18"/>
            <text x="489.81" y="-158.3" font-family="Times,serif" font-size="14" text-anchor="middle">:core:network</text>
        </g>
        <g stroke="red" stroke-width="2" class="edge">
            <path fill="none" d="M397.98 110.02c17.29 9.92 40.19 23.05 59.27 34"/>
            <path fill="red" d="m459.05 141.02 6.94 8.01-10.42-1.94z"/>
        </g>
        <g stroke="#000" class="edge">
            <path fill="none" d="M512 111.95c-2.7 7.87-5.98 17.43-9 26.26"/>
            <path d="m506.29 139.4-6.56 8.32-.06-10.59z"/>
        </g>
        <g class="node" transform="translate(4 328)">
            <ellipse cx="548.81" cy="-18" fill="none" stroke="#000" rx="64.99" ry="18"/>
            <text x="548.81" y="-14.3" font-family="Times,serif" font-size="14" text-anchor="middle">:core:model</text>
        </g>
        <g stroke="#000" class="edge">
            <path fill="none" d="M556.7 109.2c43.15 18.17 110.36 54.23 138.11 110.8 7.05 14.37 9.12 22.86 0 36-16.57 23.87-45.27 37.01-72.55 44.24"/>
            <path d="m622.84 303.7-10.54-1.06 8.9-5.75z"/>
        </g>
        <g stroke="#000" class="edge">
            <path fill="none" d="M200.95 184.13c4.43 24.2 12.57 68.66 17.85 97.48"/>
            <path d="m222.31 281.34-1.65 10.47-5.24-9.21z"/>
        </g>
        <g stroke="#000" class="edge">
            <path fill="none" d="M593.74 255.95c-6.5 8.42-14.48 18.77-21.67 28.08"/>
            <path d="m574.64 286.43-8.88 5.78 3.34-10.05z"/>
        </g>
        <g stroke="#000" class="edge">
            <path fill="none" d="M354.57 254.19c-25.11 10.53-58.74 24.62-85.6 35.88"/>
            <path d="m269.98 293.44-10.58.64 7.87-7.09z"/>
        </g>
        <g stroke="red" stroke-width="2" class="edge">
            <path fill="none" d="M426.36 254.36c24.64 10.65 57.57 24.88 83.65 36.15"/>
            <path fill="red" d="m511.49 287.33 7.79 7.18-10.57-.75z"/>
        </g>
        <g stroke="#000" class="edge">
            <path fill="none" d="M429.14 175.03c-39.44 7.17-89.54 20.5-128.33 44.97-25.59 16.14-47.34 43.39-61.13 63.49"/>
            <path d="m242.55 285.5-8.45 6.39 2.62-10.26z"/>
        </g>
        <g stroke="red" stroke-width="2" class="edge">
            <path fill="none" d="M469.92 183.24c-13.81 9.38-31.38 21.32-46.45 31.57"/>
            <path fill="red" d="m425.17 217.88-10.24 2.73 6.3-8.52z"/>
        </g>
        <g stroke="#000" class="edge">
            <path fill="none" d="M497.07 184.25c3.82 18.33 11.02 47.89 21.74 71.75 4.26 9.47 10.03 19.21 15.62 27.72"/>
            <path d="m537.38 281.84 2.73 10.23-8.52-6.3z"/>
        </g>
    </g>
</svg>
