<svg xmlns="http://www.w3.org/2000/svg" width="661pt" height="332pt" viewBox="0 0 661.12 332">
    <g class="graph">
        <path fill="#fff" stroke="transparent" d="M0 332V0h661.12v332z"/>
        <g class="node" transform="translate(4 328)">
            <ellipse cx="120.47" cy="-306" fill="none" stroke="#000" rx="81.49" ry="18"/>
            <text x="120.47" y="-302.3" font-family="Times,serif" font-size="14" text-anchor="middle">:core:download</text>
        </g>
        <g class="node" transform="translate(4 328)">
            <ellipse cx="180.47" cy="-18" fill="none" stroke="#000" rx="75.29" ry="18"/>
            <text x="180.47" y="-14.3" font-family="Times,serif" font-size="14" text-anchor="middle">:core:common</text>
        </g>
        <g stroke="#000" class="edge">
            <path fill="none" d="M94.82 38.93C80.77 47.98 65.01 60.58 55.47 76c-42.59 68.86-75.21 114.23-28 180 17.79 24.78 47.77 38.12 76.79 45.25"/>
            <path d="m105.05 297.84 9 5.6-10.52 1.23z"/>
        </g>
        <g class="node" transform="translate(4 328)">
            <ellipse cx="101.47" cy="-90" fill="none" stroke="#000" rx="68.79" ry="18"/>
            <text x="101.47" y="-86.3" font-family="Times,serif" font-size="14" text-anchor="middle">:core:ffmpeg</text>
        </g>
        <g stroke="#000" class="edge">
            <path fill="none" d="M98.65 39.07C86.45 48.23 73.13 60.9 66.47 76c-19.95 45.27 4.52 102.4 22.72 135"/>
            <path d="m92.37 209.5 1.98 10.41-8.04-6.9z"/>
        </g>
        <g class="node" transform="translate(4 328)">
            <ellipse cx="400.47" cy="-234" fill="none" stroke="#000" rx="57.39" ry="18"/>
            <text x="400.47" y="-230.3" font-family="Times,serif" font-size="14" text-anchor="middle">:core:data</text>
        </g>
        <g stroke="red" stroke-width="2" class="edge">
            <path fill="none" d="M176.84 35.82C220.18 46.47 283.37 62.08 338.47 76c4.38 1.11 8.92 2.26 13.47 3.42"/>
            <path fill="red" d="m353.06 76.1 8.82 5.87-10.55.91z"/>
        </g>
        <g class="node" transform="translate(4 328)">
            <ellipse cx="198.47" cy="-234" fill="none" stroke="#000" rx="126.98" ry="18"/>
            <text x="198.47" y="-230.3" font-family="Times,serif" font-size="14" text-anchor="middle">:okdownload:okdownload</text>
        </g>
        <g stroke="#000" class="edge">
            <path fill="none" d="M142.96 39.59c9.86 8.85 22.16 19.89 33.02 29.64"/>
            <path d="m178.47 66.76 5.11 9.28-9.78-4.07z"/>
        </g>
        <g stroke="#000" class="edge">
            <path fill="none" d="M124.2 255.59c10.13 8.98 22.81 20.22 33.93 30.07"/>
            <path d="m160.72 283.28 5.17 9.25-9.81-4.01z"/>
        </g>
        <g stroke="#000" class="edge">
            <path fill="none" d="M372.82 109.22c-18.96 9.41-42.88 22.92-61.35 38.78-47.35 40.67-89.41 101.15-111.22 135.23"/>
            <path d="m203.2 285.11-8.3 6.59 2.38-10.32z"/>
        </g>
        <g class="node" transform="translate(4 328)">
            <ellipse cx="574.47" cy="-162" fill="none" stroke="#000" rx="78.79" ry="18"/>
            <text x="574.47" y="-158.3" font-family="Times,serif" font-size="14" text-anchor="middle">:core:database</text>
        </g>
        <g stroke="#000" class="edge">
            <path fill="none" d="M438.44 108.66c26.56 10.69 63.8 25.67 93.2 37.5"/>
            <path d="m533.31 143.06 7.97 6.98-10.58-.49z"/>
        </g>
        <g class="node" transform="translate(4 328)">
            <ellipse cx="383.47" cy="-90" fill="none" stroke="#000" rx="81.49" ry="18"/>
            <text x="383.47" y="-86.3" font-family="Times,serif" font-size="14" text-anchor="middle">:core:datastore</text>
        </g>
        <g stroke="#000" class="edge">
            <path fill="none" d="M368.73 108.12c-17.6 8.48-37.15 21.44-47.26 39.88-7.69 14.03-6.91 21.57 0 36 6.03 12.57 16.65 23.09 27.63 31.37"/>
            <path d="m351.32 212.65 6.17 8.61-10.19-2.88z"/>
        </g>
        <g class="node" transform="translate(4 328)">
            <ellipse cx="401.47" cy="-162" fill="none" stroke="#000" rx="74.99" ry="18"/>
            <text x="401.47" y="-158.3" font-family="Times,serif" font-size="14" text-anchor="middle">:core:network</text>
        </g>
        <g stroke="red" stroke-width="2" class="edge">
            <path fill="none" d="M404.72 112.3c.11 7.72.24 16.99.37 25.59"/>
            <path fill="red" d="m408.59 137.85-3.36 10.05-3.64-9.95z"/>
        </g>
        <g stroke="#000" class="edge">
            <path fill="none" d="M201.03 112.15c-3.11 37.02-10.49 124.67-14.25 169.46"/>
            <path d="m190.25 282.1-4.33 9.67-2.65-10.26z"/>
        </g>
        <g class="node" transform="translate(4 328)">
            <ellipse cx="574.47" cy="-18" fill="none" stroke="#000" rx="64.99" ry="18"/>
            <text x="574.47" y="-14.3" font-family="Times,serif" font-size="14" text-anchor="middle">:core:model</text>
        </g>
        <g stroke="#000" class="edge">
            <path fill="none" d="M578.47 184.13v97.48"/>
            <path d="m581.97 281.81-3.5 10-3.5-10z"/>
        </g>
        <g stroke="#000" class="edge">
            <path fill="none" d="M345.41 253.5c-32.03 11.05-76.24 26.3-110.23 38.01"/>
            <path d="m236.04 294.92-10.6-.05 8.31-6.57z"/>
        </g>
        <g stroke="#000" class="edge">
            <path fill="none" d="M427.51 253.67c30.24 11.09 71.83 26.33 103.69 38.01"/>
            <path d="m532.58 288.45 8.18 6.73-10.59-.16z"/>
        </g>
        <g class="node" transform="translate(4 328)">
            <ellipse cx="382.47" cy="-18" fill="none" stroke="#000" rx="108.58" ry="18"/>
            <text x="382.47" y="-14.3" font-family="Times,serif" font-size="14" text-anchor="middle">:core:datastore-proto</text>
        </g>
        <g stroke="red" stroke-width="2" class="edge">
            <path fill="none" d="M387.23 256.3c-.11 7.72-.25 16.99-.37 25.59"/>
            <path fill="red" d="m390.36 281.95-3.64 9.95-3.36-10.05z"/>
        </g>
        <g stroke="#000" class="edge">
            <path fill="none" d="M369.78 181.9c-21.63 9.65-49.37 23.18-72.31 38.1-20.89 13.59-23.5 20.47-43 36-12.79 10.18-27.14 21.14-39.51 30.43"/>
            <path d="m216.86 289.38-10.11 3.18 5.92-8.79z"/>
        </g>
        <g stroke="red" stroke-width="2" class="edge">
            <path fill="none" d="M401.02 184.3c-2 7.8-4.42 17.19-6.65 25.87"/>
            <path fill="red" d="m397.75 211.08-5.88 8.82-.9-10.56z"/>
        </g>
        <g stroke="#000" class="edge">
            <path fill="none" d="M428.56 183.21c14.32 10.24 32.96 23.93 48.91 36.79 26.51 21.36 55.55 47.23 75.66 65.56"/>
            <path d="m555.63 283.1 5.01 9.33-9.74-4.17z"/>
        </g>
    </g>
</svg>
