<svg xmlns="http://www.w3.org/2000/svg" width="778pt" height="260pt" viewBox="0 0 777.78 260">
    <g class="graph">
        <path fill="#fff" stroke="transparent" d="M0 260V0h777.78v260z"/>
        <g class="node" transform="translate(4 256)">
            <ellipse cx="460.74" cy="-234" fill="none" stroke="#000" rx="73.39" ry="18"/>
            <text x="460.74" y="-230.3" font-family="Times,serif" font-size="14" text-anchor="middle">:feature:login</text>
        </g>
        <g class="node" transform="translate(4 256)">
            <ellipse cx="319.74" cy="-162" fill="none" stroke="#000" rx="45.49" ry="18"/>
            <text x="319.74" y="-158.3" font-family="Times,serif" font-size="14" text-anchor="middle">:core:ui</text>
        </g>
        <g stroke="#000" class="edge">
            <path fill="none" d="M433.8 38.36c-21.66 10.75-50.69 25.16-73.49 36.49"/>
            <path d="m361.79 78.02-10.52 1.31 7.4-7.58z"/>
        </g>
        <g class="node" transform="translate(4 256)">
            <ellipse cx="100.74" cy="-90" fill="none" stroke="#000" rx="100.98" ry="18"/>
            <text x="100.74" y="-86.3" font-family="Times,serif" font-size="14" text-anchor="middle">:core:designsystem</text>
        </g>
        <g stroke="#000" class="edge">
            <path fill="none" d="M410.28 34.27C370.55 43.34 315.84 57.59 269.74 76c-46.97 18.76-97.71 47.54-130.34 67.26"/>
            <path d="m141.06 146.35-10.36 2.22 6.71-8.2z"/>
        </g>
        <g class="node" transform="translate(4 256)">
            <ellipse cx="680.74" cy="-162" fill="none" stroke="#000" rx="89.08" ry="18"/>
            <text x="680.74" y="-158.3" font-family="Times,serif" font-size="14" text-anchor="middle">:feature:common</text>
        </g>
        <g stroke="#000" class="edge">
            <path fill="none" d="M507.68 36.66c34.67 11.03 83.7 26.64 121.38 38.62"/>
            <path d="m630.41 72.04 8.47 6.37-10.6.3z"/>
        </g>
        <g class="node" transform="translate(4 256)">
            <ellipse cx="460.74" cy="-162" fill="none" stroke="#000" rx="74.99" ry="18"/>
            <text x="460.74" y="-158.3" font-family="Times,serif" font-size="14" text-anchor="middle">:core:network</text>
        </g>
        <g stroke="red" stroke-width="2" class="edge">
            <path fill="none" d="M464.74 40.3v25.59"/>
            <path fill="red" d="m468.24 65.9-3.5 10-3.5-10z"/>
        </g>
        <g class="node" transform="translate(4 256)">
            <ellipse cx="588.74" cy="-90" fill="none" stroke="#000" rx="81.49" ry="18"/>
            <text x="588.74" y="-86.3" font-family="Times,serif" font-size="14" text-anchor="middle">:core:datastore</text>
        </g>
        <g stroke="#000" class="edge">
            <path fill="none" d="M497.7 38.29c16.9 9.1 36.84 21.96 51.04 37.71 16.34 18.12 28.06 43.42 35.28 62.41"/>
            <path d="m587.36 137.37.11 10.59-6.69-8.21z"/>
        </g>
        <g stroke="#000" class="edge">
            <path fill="none" d="M289.52 105.94c-34.23 10.94-87.48 27.96-128.04 40.92"/>
            <path d="m162.31 150.27-10.59-.29 8.46-6.38z"/>
        </g>
        <g class="node" transform="translate(4 256)">
            <ellipse cx="297.74" cy="-90" fill="none" stroke="#000" rx="77.99" ry="18"/>
            <text x="297.74" y="-86.3" font-family="Times,serif" font-size="14" text-anchor="middle">:core:analytics</text>
        </g>
        <g stroke="#000" class="edge">
            <path fill="none" d="m318.42 111.95-8.17 25.97"/>
            <path d="m313.51 139.23-6.34 8.49-.34-10.58z"/>
        </g>
        <g class="node" transform="translate(4 256)">
            <ellipse cx="430.74" cy="-18" fill="none" stroke="#000" rx="64.99" ry="18"/>
            <text x="430.74" y="-14.3" font-family="Times,serif" font-size="14" text-anchor="middle">:core:model</text>
        </g>
        <g stroke="#000" class="edge">
            <path fill="none" d="M346.19 109.76c13.53 9.69 30.44 23.32 42.55 38.24 15.43 19 27.79 44 35.8 62.67"/>
            <path d="m427.83 209.47.6 10.58-7.06-7.9z"/>
        </g>
        <g stroke="red" stroke-width="2" class="edge">
            <path fill="none" d="M493.47 110.71c18.07 9.88 41.6 22.75 61.21 33.48"/>
            <path fill="red" d="m556.57 141.23 7.1 7.87-10.45-1.73z"/>
        </g>
        <g stroke="#000" class="edge">
            <path fill="none" d="M461.12 112.13c-5.13 24.31-14.59 69.05-20.67 97.86"/>
            <path d="m443.86 210.75-5.49 9.06-1.35-10.51z"/>
        </g>
        <g class="node" transform="translate(4 256)">
            <ellipse cx="588.74" cy="-18" fill="none" stroke="#000" rx="75.29" ry="18"/>
            <text x="588.74" y="-14.3" font-family="Times,serif" font-size="14" text-anchor="middle">:core:common</text>
        </g>
        <g stroke="#000" class="edge">
            <path fill="none" d="M468.61 112.15c5.08 19.32 15.61 50.78 34.13 71.85 12.11 13.78 28.7 24.94 44.34 33.41"/>
            <path d="m548.85 214.38 7.29 7.7-10.49-1.48z"/>
        </g>
        <g stroke="red" stroke-width="2" class="edge">
            <path fill="none" d="M558.07 182.36c-23.85 10.56-55.65 24.66-80.99 35.88"/>
            <path fill="red" d="m478.27 221.54-10.56.85 7.73-7.25z"/>
        </g>
        <g stroke="#000" class="edge">
            <path fill="none" d="M592.74 184.3v25.59"/>
            <path d="m596.24 209.9-3.5 10-3.5-10z"/>
        </g>
    </g>
</svg>
