<svg xmlns="http://www.w3.org/2000/svg" width="556pt" height="260pt" viewBox="0 0 556.04 260">
    <g class="graph">
        <path fill="#fff" stroke="transparent" d="M0 260V0h556.04v260z"/>
        <g class="node" transform="translate(4 256)">
            <ellipse cx="275.64" cy="-234" fill="none" stroke="#000" rx="57.39" ry="18"/>
            <text x="275.64" y="-230.3" font-family="Times,serif" font-size="14" text-anchor="middle">:core:data</text>
        </g>
        <g class="node" transform="translate(4 256)">
            <ellipse cx="472.64" cy="-18" fill="none" stroke="#000" rx="75.29" ry="18"/>
            <text x="472.64" y="-14.3" font-family="Times,serif" font-size="14" text-anchor="middle">:core:common</text>
        </g>
        <g stroke="#000" class="edge">
            <path fill="none" d="M328.21 31.62c28.74 7.37 63.98 20.71 87.43 44.38 36.8 37.14 51.79 98.69 57.59 133.95"/>
            <path d="m476.72 209.58-1.97 10.41-4.95-9.36z"/>
        </g>
        <g class="node" transform="translate(4 256)">
            <ellipse cx="78.64" cy="-90" fill="none" stroke="#000" rx="78.79" ry="18"/>
            <text x="78.64" y="-86.3" font-family="Times,serif" font-size="14" text-anchor="middle">:core:database</text>
        </g>
        <g stroke="#000" class="edge">
            <path fill="none" d="M257.81 38.74c-35.09 25.29-104.16 75.08-144.29 104"/>
            <path d="m115.34 145.75-10.16 3 6.07-8.68z"/>
        </g>
        <g class="node" transform="translate(4 256)">
            <ellipse cx="294.64" cy="-90" fill="none" stroke="#000" rx="81.49" ry="18"/>
            <text x="294.64" y="-86.3" font-family="Times,serif" font-size="14" text-anchor="middle">:core:datastore</text>
        </g>
        <g stroke="#000" class="edge">
            <path fill="none" d="M266.32 39.54c-12.78 17.98-28.74 47.48-18.68 72.46 4.51 11.18 12.62 21.31 21.07 29.66"/>
            <path d="m271.16 139.16 4.98 9.36-9.73-4.21z"/>
        </g>
        <g class="node" transform="translate(4 256)">
            <ellipse cx="327.64" cy="-162" fill="none" stroke="#000" rx="74.99" ry="18"/>
            <text x="327.64" y="-158.3" font-family="Times,serif" font-size="14" text-anchor="middle">:core:network</text>
        </g>
        <g stroke="red" stroke-width="2" class="edge">
            <path fill="none" d="M291.97 39.59c6.25 8.42 13.98 18.83 20.95 28.21"/>
            <path fill="red" d="m315.89 65.93 3.16 10.11-8.78-5.94z"/>
        </g>
        <g class="node" transform="translate(4 256)">
            <ellipse cx="78.64" cy="-18" fill="none" stroke="#000" rx="64.99" ry="18"/>
            <text x="78.64" y="-14.3" font-family="Times,serif" font-size="14" text-anchor="middle">:core:model</text>
        </g>
        <g stroke="#000" class="edge">
            <path fill="none" d="M82.64 184.3v25.59"/>
            <path d="m86.14 209.9-3.5 10-3.5-10z"/>
        </g>
        <g stroke="#000" class="edge">
            <path fill="none" d="M336.83 182.02c27.16 10.68 63.83 25.1 92.8 36.49"/>
            <path d="m431.11 215.33 8.02 6.92-10.59-.4z"/>
        </g>
        <g stroke="#000" class="edge">
            <path fill="none" d="M254.67 181.25c-35.33 11.45-84.96 27.53-121.84 39.49"/>
            <path d="m133.86 224.08-10.59-.25 8.43-6.41z"/>
        </g>
        <g class="node" transform="translate(4 256)">
            <ellipse cx="270.64" cy="-18" fill="none" stroke="#000" rx="108.58" ry="18"/>
            <text x="270.64" y="-14.3" font-family="Times,serif" font-size="14" text-anchor="middle">:core:datastore-proto</text>
        </g>
        <g stroke="red" stroke-width="2" class="edge">
            <path fill="none" d="M292.71 184.3c-2.67 7.8-5.89 17.19-8.87 25.87"/>
            <path fill="red" d="m287.06 211.57-6.55 8.33-.07-10.6z"/>
        </g>
        <g stroke="#000" class="edge">
            <path fill="none" d="M349.79 111.52c11.29 10.36 26.05 24.06 38.85 36.48 22.39 21.71 47.33 47.04 64.92 65.12"/>
            <path d="m456.17 210.78 4.46 9.61-9.48-4.73z"/>
        </g>
        <g stroke="red" stroke-width="2" class="edge">
            <path fill="none" d="M323.65 111.95c-3.75 7.96-8.31 17.64-12.51 26.54"/>
            <path fill="red" d="m314.22 140.17-7.43 7.55 1.1-10.53z"/>
        </g>
        <g stroke="#000" class="edge">
            <path fill="none" d="M289.64 108.9c-24.67 9.16-55.85 22.53-81 39.1-19.42 12.8-19.48 21.92-38 36-15.66 11.91-34.17 23.4-50.16 32.62"/>
            <path d="m121.82 219.89-10.43 1.88 6.97-7.97z"/>
        </g>
    </g>
</svg>
