<svg xmlns="http://www.w3.org/2000/svg" width="881pt" height="260pt" viewBox="0 0 881.13 260">
    <g class="graph">
        <path fill="#fff" stroke="transparent" d="M0 260V0h881.13v260z"/>
        <g class="node" transform="translate(4 256)">
            <ellipse cx="336.74" cy="-234" fill="none" stroke="#000" rx="107.48" ry="18"/>
            <text x="336.74" y="-230.3" font-family="Times,serif" font-size="14" text-anchor="middle">:feature:authorspace</text>
        </g>
        <g class="node" transform="translate(4 256)">
            <ellipse cx="260.74" cy="-162" fill="none" stroke="#000" rx="45.49" ry="18"/>
            <text x="260.74" y="-158.3" font-family="Times,serif" font-size="14" text-anchor="middle">:core:ui</text>
        </g>
        <g stroke="#000" class="edge">
            <path fill="none" d="M322.34 39.95c-9.89 9.11-22.24 20.48-32.95 30.35"/>
            <path d="m291.65 72.97-9.72 4.2 4.98-9.35z"/>
        </g>
        <g class="node" transform="translate(4 256)">
            <ellipse cx="100.74" cy="-90" fill="none" stroke="#000" rx="100.98" ry="18"/>
            <text x="100.74" y="-86.3" font-family="Times,serif" font-size="14" text-anchor="middle">:core:designsystem</text>
        </g>
        <g stroke="#000" class="edge">
            <path fill="none" d="M293.64 38.18c-25.46 9.18-56.92 22.15-82.9 37.82-30.65 18.49-61.52 45.6-81.98 65.03"/>
            <path d="m131.08 143.66-9.63 4.41 4.78-9.46z"/>
        </g>
        <g class="node" transform="translate(4 256)">
            <ellipse cx="413.74" cy="-162" fill="none" stroke="#000" rx="89.08" ry="18"/>
            <text x="413.74" y="-158.3" font-family="Times,serif" font-size="14" text-anchor="middle">:feature:common</text>
        </g>
        <g stroke="#000" class="edge">
            <path fill="none" d="M359.38 39.95c9.74 8.85 21.82 19.83 32.46 29.5"/>
            <path d="m394.23 66.89 5.04 9.32-9.75-4.14z"/>
        </g>
        <g class="node" transform="translate(4 256)">
            <ellipse cx="595.74" cy="-162" fill="none" stroke="#000" rx="74.99" ry="18"/>
            <text x="595.74" y="-158.3" font-family="Times,serif" font-size="14" text-anchor="middle">:core:network</text>
        </g>
        <g stroke="red" stroke-width="2" class="edge">
            <path fill="none" d="M394.72 37.59c43.14 11.66 103.47 27.96 147.51 39.87"/>
            <path fill="red" d="m543.19 74.09 8.74 5.99-10.57.77z"/>
        </g>
        <g stroke="#000" class="edge">
            <path fill="none" d="M235.39 107.84c-23.8 10.41-57.78 25.28-85.11 37.24"/>
            <path d="m151.48 148.37-10.57.8 7.76-7.21z"/>
        </g>
        <g class="node" transform="translate(4 256)">
            <ellipse cx="297.74" cy="-90" fill="none" stroke="#000" rx="77.99" ry="18"/>
            <text x="297.74" y="-86.3" font-family="Times,serif" font-size="14" text-anchor="middle">:core:analytics</text>
        </g>
        <g stroke="#000" class="edge">
            <path fill="none" d="M273.7 111.95c4.25 8.04 9.43 17.85 14.18 26.82"/>
            <path d="m291.03 137.25 1.58 10.47-7.77-7.2z"/>
        </g>
        <g class="node" transform="translate(4 256)">
            <ellipse cx="403.74" cy="-18" fill="none" stroke="#000" rx="64.99" ry="18"/>
            <text x="403.74" y="-14.3" font-family="Times,serif" font-size="14" text-anchor="middle">:core:model</text>
        </g>
        <g stroke="#000" class="edge">
            <path fill="none" d="M299.26 105.77c32.4 10.79 77.62 27.81 89.48 42.23 14.17 17.21 18.49 42.49 19.52 61.71"/>
            <path d="m411.76 209.86-3.23 10.09-3.77-9.91z"/>
        </g>
        <g stroke="#000" class="edge">
            <path fill="none" d="M570.1 110.63c-17.98 9.92-41.09 23.47-60.36 37.37-28.1 20.27-57.66 46.71-77.69 65.49"/>
            <path d="m434.28 216.2-9.67 4.33 4.86-9.41z"/>
        </g>
        <g class="node" transform="translate(4 256)">
            <ellipse cx="797.74" cy="-18" fill="none" stroke="#000" rx="75.29" ry="18"/>
            <text x="797.74" y="-14.3" font-family="Times,serif" font-size="14" text-anchor="middle">:core:common</text>
        </g>
        <g stroke="#000" class="edge">
            <path fill="none" d="M628.75 110.72c17.95 10.06 41.26 23.73 60.99 37.28 30.27 20.79 62.93 47.25 85.13 65.9"/>
            <path d="m777.17 211.26 5.38 9.13-9.9-3.78z"/>
        </g>
        <g class="node" transform="translate(4 256)">
            <ellipse cx="595.74" cy="-90" fill="none" stroke="#000" rx="81.49" ry="18"/>
            <text x="595.74" y="-86.3" font-family="Times,serif" font-size="14" text-anchor="middle">:core:datastore</text>
        </g>
        <g stroke="red" stroke-width="2" class="edge">
            <path fill="none" d="M599.74 112.3v25.59"/>
            <path fill="red" d="m603.24 137.9-3.5 10-3.5-10z"/>
        </g>
        <g stroke="#000" class="edge">
            <path fill="none" d="M559.49 181.67c-30.49 11.12-72.47 26.43-104.55 38.12"/>
            <path d="m455.92 223.16-10.59.14 8.2-6.72z"/>
        </g>
        <g stroke="#000" class="edge">
            <path fill="none" d="M641.6 181.5c31.76 11.01 75.57 26.19 109.35 37.9"/>
            <path d="m752.33 216.17 8.3 6.58-10.59.04z"/>
        </g>
        <g class="node" transform="translate(4 256)">
            <ellipse cx="595.74" cy="-18" fill="none" stroke="#000" rx="108.58" ry="18"/>
            <text x="595.74" y="-14.3" font-family="Times,serif" font-size="14" text-anchor="middle">:core:datastore-proto</text>
        </g>
        <g stroke="red" stroke-width="2" class="edge">
            <path fill="none" d="M599.74 184.3v25.59"/>
            <path fill="red" d="m603.24 209.9-3.5 10-3.5-10z"/>
        </g>
    </g>
</svg>
