<svg xmlns="http://www.w3.org/2000/svg" width="988pt" height="260pt" viewBox="0 0 988.13 260">
    <g class="graph">
        <path fill="#fff" stroke="transparent" d="M0 260V0h988.13v260z"/>
        <g class="node" transform="translate(4 256)">
            <ellipse cx="395.74" cy="-234" fill="none" stroke="#000" rx="79.09" ry="18"/>
            <text x="395.74" y="-230.3" font-family="Times,serif" font-size="14" text-anchor="middle">:feature:player</text>
        </g>
        <g class="node" transform="translate(4 256)">
            <ellipse cx="242.74" cy="-162" fill="none" stroke="#000" rx="45.49" ry="18"/>
            <text x="242.74" y="-158.3" font-family="Times,serif" font-size="14" text-anchor="middle">:core:ui</text>
        </g>
        <g stroke="#000" class="edge">
            <path fill="none" d="M366.16 38.36c-24.1 11.03-56.6 25.9-81.62 37.35"/>
            <path d="m285.91 78.93-10.55.98 7.63-7.34z"/>
        </g>
        <g class="node" transform="translate(4 256)">
            <ellipse cx="100.74" cy="-90" fill="none" stroke="#000" rx="100.98" ry="18"/>
            <text x="100.74" y="-86.3" font-family="Times,serif" font-size="14" text-anchor="middle">:core:designsystem</text>
        </g>
        <g stroke="#000" class="edge">
            <path fill="none" d="M330.99 31.11C288.92 38.3 235.22 51.63 192.74 76c-28.04 16.08-53.2 43.53-69.37 63.7"/>
            <path d="m125.93 142.11-8.92 5.73 3.4-10.04z"/>
        </g>
        <g class="node" transform="translate(4 256)">
            <ellipse cx="395.74" cy="-162" fill="none" stroke="#000" rx="89.08" ry="18"/>
            <text x="395.74" y="-158.3" font-family="Times,serif" font-size="14" text-anchor="middle">:feature:common</text>
        </g>
        <g stroke="#000" class="edge">
            <path fill="none" d="M399.74 40.3v25.59"/>
            <path d="m403.24 65.9-3.5 10-3.5-10z"/>
        </g>
        <g class="node" transform="translate(4 256)">
            <ellipse cx="671.74" cy="-162" fill="none" stroke="#000" rx="74.99" ry="18"/>
            <text x="671.74" y="-158.3" font-family="Times,serif" font-size="14" text-anchor="middle">:core:network</text>
        </g>
        <g stroke="red" stroke-width="2" class="edge">
            <path fill="none" d="M450.69 35.92c46.77 11.86 116.1 29.45 165.44 41.96"/>
            <path fill="red" d="m617.19 74.54 8.83 5.85-10.55.93z"/>
        </g>
        <g class="node" transform="translate(4 256)">
            <ellipse cx="510.74" cy="-90" fill="none" stroke="#000" rx="78.79" ry="18"/>
            <text x="510.74" y="-86.3" font-family="Times,serif" font-size="14" text-anchor="middle">:core:database</text>
        </g>
        <g stroke="#000" class="edge">
            <path fill="none" d="M443.97 37.08c19.34 8.34 40.58 20.89 53.77 38.92 13.03 17.8 16.89 42.81 17.71 61.79"/>
            <path d="m518.95 137.83-3.32 10.06-3.68-9.93z"/>
        </g>
        <g stroke="#000" class="edge">
            <path fill="none" d="M219.36 108.5c-20.63 10.17-49.29 24.29-72.79 35.88"/>
            <path d="m148.04 147.56-10.52 1.28 7.42-7.56z"/>
        </g>
        <g class="node" transform="translate(4 256)">
            <ellipse cx="297.74" cy="-90" fill="none" stroke="#000" rx="77.99" ry="18"/>
            <text x="297.74" y="-86.3" font-family="Times,serif" font-size="14" text-anchor="middle">:core:analytics</text>
        </g>
        <g stroke="#000" class="edge">
            <path fill="none" d="M259.78 111.59c6.68 8.5 14.95 19.04 22.39 28.5"/>
            <path d="m284.99 138.02 3.43 10.02-8.93-5.7z"/>
        </g>
        <g class="node" transform="translate(4 256)">
            <ellipse cx="510.74" cy="-18" fill="none" stroke="#000" rx="64.99" ry="18"/>
            <text x="510.74" y="-14.3" font-family="Times,serif" font-size="14" text-anchor="middle">:core:model</text>
        </g>
        <g stroke="#000" class="edge">
            <path fill="none" d="M280.83 105.97c35.83 11.84 89.49 30.54 107.91 42.03 19.74 12.31 19.48 21.92 38 36 15.66 11.91 34.17 23.4 50.17 32.62"/>
            <path d="m479.02 213.8 6.97 7.97-10.42-1.88z"/>
        </g>
        <g stroke="#000" class="edge">
            <path fill="none" d="M664.56 111.88c-13.2 19.07-36.57 50.29-61.82 72.12-14.55 12.58-32.45 23.97-48.31 32.93"/>
            <path d="m555.82 220.16-10.44 1.76 7.07-7.89z"/>
        </g>
        <g class="node" transform="translate(4 256)">
            <ellipse cx="904.74" cy="-18" fill="none" stroke="#000" rx="75.29" ry="18"/>
            <text x="904.74" y="-14.3" font-family="Times,serif" font-size="14" text-anchor="middle">:core:common</text>
        </g>
        <g stroke="#000" class="edge">
            <path fill="none" d="M725.91 107.4c29.14 8.61 65.74 21.92 94.83 40.6 27.04 17.36 52.2 44.36 68.64 64.07"/>
            <path d="m892.26 210.06 3.61 9.96-9.04-5.53z"/>
        </g>
        <g class="node" transform="translate(4 256)">
            <ellipse cx="726.74" cy="-90" fill="none" stroke="#000" rx="81.49" ry="18"/>
            <text x="726.74" y="-86.3" font-family="Times,serif" font-size="14" text-anchor="middle">:core:datastore</text>
        </g>
        <g stroke="red" stroke-width="2" class="edge">
            <path fill="none" d="M689.06 111.95c6.68 8.51 14.91 18.98 22.29 28.37"/>
            <path fill="red" d="m714.12 138.19 3.43 10.02-8.93-5.7z"/>
        </g>
        <g stroke="#000" class="edge">
            <path fill="none" d="M514.74 184.3v25.59"/>
            <path d="m518.24 209.9-3.5 10-3.5-10z"/>
        </g>
        <g stroke="#000" class="edge">
            <path fill="none" d="M686.77 181.25c-35.33 11.45-84.96 27.53-121.84 39.49"/>
            <path d="m565.96 224.08-10.59-.25 8.43-6.41z"/>
        </g>
        <g stroke="#000" class="edge">
            <path fill="none" d="M768.93 182.02c27.16 10.68 63.83 25.1 92.8 36.49"/>
            <path d="m863.2 215.33 8.03 6.92-10.59-.4z"/>
        </g>
        <g class="node" transform="translate(4 256)">
            <ellipse cx="702.74" cy="-18" fill="none" stroke="#000" rx="108.58" ry="18"/>
            <text x="702.74" y="-14.3" font-family="Times,serif" font-size="14" text-anchor="middle">:core:datastore-proto</text>
        </g>
        <g stroke="red" stroke-width="2" class="edge">
            <path fill="none" d="M724.81 184.3c-2.68 7.8-5.89 17.19-8.87 25.87"/>
            <path fill="red" d="m719.16 211.57-6.55 8.33-.07-10.6z"/>
        </g>
    </g>
</svg>
