<svg xmlns="http://www.w3.org/2000/svg" width="3024" height="476pt" viewBox="0 0 2268 476">
    <g class="graph">
        <path fill="#fff" stroke="transparent" d="M0 476V0h2268v476z"/>
        <g class="node" transform="translate(4 472)">
            <ellipse cx="1229" cy="-450" fill="none" stroke="#000" rx="30.59" ry="18"/>
            <text x="1229" y="-446.3" font-family="Times,serif" font-size="14" text-anchor="middle">:app</text>
        </g>
        <g class="node" transform="translate(4 472)">
            <ellipse cx="1000" cy="-306" fill="none" stroke="#000" rx="89.08" ry="18"/>
            <text x="1000" y="-302.3" font-family="Times,serif" font-size="14" text-anchor="middle">:feature:common</text>
        </g>
        <g stroke="#000" class="edge">
            <path fill="none" d="M1204.46 28.71c-31.49 7.26-82.71 22-120.46 47.29-25.41 17.02-48.05 43.9-62.71 63.67"/>
            <path d="m1024.02 141.86-8.69 6.06 3.02-10.16z"/>
        </g>
        <g class="node" transform="translate(4 472)">
            <ellipse cx="948" cy="-378" fill="none" stroke="#000" rx="79.89" ry="18"/>
            <text x="948" y="-374.3" font-family="Times,serif" font-size="14" text-anchor="middle">:feature:splash</text>
        </g>
        <g stroke="#000" class="edge">
            <path fill="none" d="M1205.29 29.9c-44.31 11.04-132.17 32.93-191.83 47.79"/>
            <path d="m1013.95 81.18-10.55-.98 8.86-5.82z"/>
        </g>
        <g class="node" transform="translate(4 472)">
            <ellipse cx="423" cy="-378" fill="none" stroke="#000" rx="73.39" ry="18"/>
            <text x="423" y="-374.3" font-family="Times,serif" font-size="14" text-anchor="middle">:feature:login</text>
        </g>
        <g stroke="#000" class="edge">
            <path fill="none" d="M1202.5 23.8C1102.57 26.72 776.11 38.7 509 76c-6.58.92-13.42 2.05-20.22 3.29"/>
            <path d="m489.35 82.74-10.48-1.57 9.18-5.3z"/>
        </g>
        <g class="node" transform="translate(4 472)">
            <ellipse cx="1866" cy="-378" fill="none" stroke="#000" rx="75.29" ry="18"/>
            <text x="1866" y="-374.3" font-family="Times,serif" font-size="14" text-anchor="middle">:feature:home</text>
        </g>
        <g stroke="#000" class="edge">
            <path fill="none" d="M1263.42 24.95C1346.58 30.5 1584.68 47.82 1781 76c7.66 1.1 15.67 2.41 23.61 3.8"/>
            <path d="m1805.37 76.38 9.22 5.22-10.47 1.67z"/>
        </g>
        <g class="node" transform="translate(4 472)">
            <ellipse cx="1460" cy="-378" fill="none" stroke="#000" rx="67.69" ry="18"/>
            <text x="1460" y="-374.3" font-family="Times,serif" font-size="14" text-anchor="middle">:feature:tool</text>
        </g>
        <g stroke="red" stroke-width="2" class="edge">
            <path fill="none" d="M1259.5 31.03c36.84 11.16 104.34 31.62 151.68 45.96"/>
            <path fill="red" d="m1412.41 73.71 8.55 6.25-10.58.45z"/>
        </g>
        <g class="node" transform="translate(4 472)">
            <ellipse cx="1640" cy="-378" fill="none" stroke="#000" rx="94.78" ry="18"/>
            <text x="1640" y="-374.3" font-family="Times,serif" font-size="14" text-anchor="middle">:feature:download</text>
        </g>
        <g stroke="#000" class="edge">
            <path fill="none" d="M1261.9 27.92c62.41 10.63 211.59 36.04 304.01 51.78"/>
            <path d="m1566.5 76.25 9.27 5.13-10.44 1.77z"/>
        </g>
        <g class="node" transform="translate(4 472)">
            <ellipse cx="585" cy="-378" fill="none" stroke="#000" rx="70.69" ry="18"/>
            <text x="585" y="-374.3" font-family="Times,serif" font-size="14" text-anchor="middle">:feature:user</text>
        </g>
        <g stroke="#000" class="edge">
            <path fill="none" d="M1202.59 24.62C1117.75 29.39 871.46 45.08 669 76c-6.26.96-12.77 2.1-19.26 3.33"/>
            <path d="m650.11 82.82-10.49-1.5 9.14-5.37z"/>
        </g>
        <g class="node" transform="translate(4 472)">
            <ellipse cx="762" cy="-378" fill="none" stroke="#000" rx="87.99" ry="18"/>
            <text x="762" y="-374.3" font-family="Times,serif" font-size="14" text-anchor="middle">:feature:settings</text>
        </g>
        <g stroke="#000" class="edge">
            <path fill="none" d="M1203.22 26.94C1140.3 35.35 989.25 55.9 863 76c-7.6 1.21-15.52 2.52-23.42 3.86"/>
            <path d="m840.06 83.33-10.45-1.77 9.27-5.13z"/>
        </g>
        <g class="node" transform="translate(4 472)">
            <ellipse cx="2039" cy="-378" fill="none" stroke="#000" rx="79.09" ry="18"/>
            <text x="2039" y="-374.3" font-family="Times,serif" font-size="14" text-anchor="middle">:feature:player</text>
        </g>
        <g stroke="#000" class="edge">
            <path fill="none" d="M1263.7 23.99c99.85 3.49 424.32 16.95 690.3 52.01 7.37.97 15.06 2.16 22.69 3.46"/>
            <path d="m1977.42 76.04 9.24 5.18-10.46 1.71z"/>
        </g>
        <g class="node" transform="translate(4 472)">
            <ellipse cx="1229" cy="-378" fill="none" stroke="#000" rx="107.48" ry="18"/>
            <text x="1229" y="-374.3" font-family="Times,serif" font-size="14" text-anchor="middle">:feature:authorspace</text>
        </g>
        <g stroke="#000" class="edge">
            <path fill="none" d="M1233 40.3v25.59"/>
            <path d="m1236.5 65.9-3.5 10-3.5-10z"/>
        </g>
        <g class="node" transform="translate(4 472)">
            <ellipse cx="218" cy="-378" fill="none" stroke="#000" rx="113.98" ry="18"/>
            <text x="218" y="-374.3" font-family="Times,serif" font-size="14" text-anchor="middle">:feature:ffmpeg-action</text>
        </g>
        <g stroke="#000" class="edge">
            <path fill="none" d="M1202.26 23.97C1088.41 27.74 680.05 42.9 345 76c-10.76 1.06-22.02 2.36-33.18 3.76"/>
            <path d="m311.99 83.27-10.37-2.19 9.47-4.75z"/>
        </g>
        <g class="node" transform="translate(4 472)">
            <ellipse cx="1815" cy="-234" fill="none" stroke="#000" rx="77.99" ry="18"/>
            <text x="1815" y="-230.3" font-family="Times,serif" font-size="14" text-anchor="middle">:core:analytics</text>
        </g>
        <g stroke="#000" class="edge">
            <path fill="none" d="M1263.63 23.6C1419.45 26.83 2117.92 43.07 2149 76c10.98 11.64 8.92 22.72 0 36-30.62 45.61-180.29 88.66-267.18 110.36"/>
            <path d="m1882.61 225.77-10.55-1 8.87-5.8z"/>
        </g>
        <g class="node" transform="translate(4 472)">
            <ellipse cx="618" cy="-18" fill="none" stroke="#000" rx="75.29" ry="18"/>
            <text x="618" y="-14.3" font-family="Times,serif" font-size="14" text-anchor="middle">:core:common</text>
        </g>
        <g stroke="#000" class="edge">
            <path fill="none" d="M1202.52 23.44C1021.13 26.15 90.01 41.7 41 76 5.9 100.56 4 122.16 4 165v146c0 108.09 363.61 133.91 533.01 140.07"/>
            <path d="m537.28 447.58 9.87 3.84-10.12 3.15z"/>
        </g>
        <g class="node" transform="translate(4 472)">
            <ellipse cx="1306" cy="-90" fill="none" stroke="#000" rx="81.49" ry="18"/>
            <text x="1306" y="-86.3" font-family="Times,serif" font-size="14" text-anchor="middle">:core:datastore</text>
        </g>
        <g stroke="#000" class="edge">
            <path fill="none" d="M1263.48 23.27C1417.22 24.84 2103.5 34.16 2188 76c46.61 23.08 76 36.98 76 89v74c0 82.15-83.15 65.93-162 89-129.02 37.74-521.34 48.74-700.73 51.84"/>
            <path d="m1401.12 383.34-10.06-3.33 9.94-3.67z"/>
        </g>
        <g class="node" transform="translate(4 472)">
            <ellipse cx="1026" cy="-234" fill="none" stroke="#000" rx="100.98" ry="18"/>
            <text x="1026" y="-230.3" font-family="Times,serif" font-size="14" text-anchor="middle">:core:designsystem</text>
        </g>
        <g stroke="#000" class="edge">
            <path fill="none" d="M1204.2 28.02c-27.02 6.31-66.3 19.92-87.2 47.98-28.94 38.87 9.8 66.36-15 108-7.48 12.56-19.19 23.04-31.02 31.29"/>
            <path d="m1072.7 218.35-10.29 2.54 6.46-8.4z"/>
        </g>
        <g class="node" transform="translate(4 472)">
            <ellipse cx="1331" cy="-162" fill="none" stroke="#000" rx="74.99" ry="18"/>
            <text x="1331" y="-158.3" font-family="Times,serif" font-size="14" text-anchor="middle">:core:network</text>
        </g>
        <g stroke="#000" class="edge">
            <path fill="none" d="M1202.37 23.25C1025.19 24.86 138.18 34.94 99 76c-11.05 11.57-9.27 22.96 0 36 84.51 118.93 185.37 32.14 310 108 19.87 12.1 16.65 26.75 38 36 72.46 31.41 596.04 46.46 803.59 51.24"/>
            <path d="m1250.9 303.75 9.92 3.73-10.07 3.27z"/>
        </g>
        <g class="node" transform="translate(4 472)">
            <ellipse cx="1486" cy="-306" fill="none" stroke="#000" rx="81.49" ry="18"/>
            <text x="1486" y="-302.3" font-family="Times,serif" font-size="14" text-anchor="middle">:core:download</text>
        </g>
        <g stroke="#000" class="edge">
            <path fill="none" d="M1263.67 23.82C1369.61 26.95 1715.41 39.88 1748 76c10.72 11.88 10.11 23.6 0 36-11.56 14.17-109.42 31.33-181.21 42.21"/>
            <path d="m1567.25 157.68-10.41-1.98 9.37-4.95z"/>
        </g>
        <g class="node" transform="translate(4 472)">
            <ellipse cx="1266" cy="-306" fill="none" stroke="#000" rx="45.49" ry="18"/>
            <text x="1266" y="-302.3" font-family="Times,serif" font-size="14" text-anchor="middle">:core:ui</text>
        </g>
        <g stroke="#000" class="edge">
            <path fill="none" d="M1262.41 27.36c27.67 5.83 67.62 19.12 86.59 48.64 8.65 13.46 7.53 21.88 0 36-8.37 15.69-23.67 27.56-38.59 36.04"/>
            <path d="m1311.71 151.31-10.48 1.58 7.21-7.77z"/>
        </g>
        <g class="node" transform="translate(4 472)">
            <ellipse cx="1968" cy="-234" fill="none" stroke="#000" rx="57.39" ry="18"/>
            <text x="1968" y="-230.3" font-family="Times,serif" font-size="14" text-anchor="middle">:core:data</text>
        </g>
        <g stroke="#000" class="edge">
            <path fill="none" d="M1263.45 23.57c157.3 3.06 871.8 18.82 903.55 52.43 56.27 59.55-73.13 117.84-147.4 145.06"/>
            <path d="m2020.55 224.44-10.6.09 8.23-6.68z"/>
        </g>
        <g class="node" transform="translate(4 472)">
            <ellipse cx="1900" cy="-306" fill="none" stroke="#000" rx="60.39" ry="18"/>
            <text x="1900" y="-302.3" font-family="Times,serif" font-size="14" text-anchor="middle">:sync:work</text>
        </g>
        <g stroke="#000" class="edge">
            <path fill="none" d="M1263.54 23.64C1417.29 27 2100.59 43.74 2131 76c10.98 11.64 9.94 23.47 0 36-10.4 13.11-102.12 31.4-165.74 42.71"/>
            <path d="m1965.76 158.18-10.45-1.72 9.24-5.18z"/>
        </g>
        <g class="node" transform="translate(4 472)">
            <ellipse cx="269" cy="-234" fill="none" stroke="#000" rx="126.98" ry="18"/>
            <text x="269" y="-230.3" font-family="Times,serif" font-size="14" text-anchor="middle">:okdownload:okdownload</text>
        </g>
        <g stroke="#000" class="edge">
            <path fill="none" d="M1202.36 23.21C1022.12 24.6 106.42 33.71 66 76c-33.16 34.7-29.43 70.08 0 108 13.88 17.88 61.57 30.76 107.68 39.34"/>
            <path d="m174.57 219.94 9.22 5.22-10.46 1.67z"/>
        </g>
        <g stroke="#000" class="edge">
            <path fill="none" d="M964.59 111.95c6.17 8.3 13.72 18.47 20.56 27.67"/>
            <path d="m988.01 137.61 3.16 10.11-8.78-5.94z"/>
        </g>
        <g stroke="#000" class="edge">
            <path fill="none" d="M927.48 111.35c-11.57 9.24-24.2 21.88-30.48 36.65-19.2 45.16-11.69 73.28 23 108 80.93 81.01 214.37 109.56 302.24 119.6"/>
            <path d="m1222.62 372.12 9.56 4.56-10.31 2.4z"/>
        </g>
        <g stroke="#000" class="edge">
            <path fill="none" d="M932.7 111.66C913.87 130 890.19 160.05 906 184c11.36 17.21 29.58 28.85 48.6 36.72"/>
            <path d="m955.88 217.46 8.1 6.83-10.59-.29z"/>
        </g>
        <g stroke="#000" class="edge">
            <path fill="none" d="M1007.03 107.11c60.37 13.29 156.35 34.42 214.14 47.14"/>
            <path d="m1222.14 150.88 9.01 5.57-10.52 1.27z"/>
        </g>
        <g stroke="#000" class="edge">
            <path fill="none" d="M479.35 106.65c9.82 1.96 20.03 3.84 29.65 5.35 139.92 21.94 303.54 37.51 403.18 45.87"/>
            <path d="m912.54 154.39 9.68 4.32-10.26 2.66z"/>
        </g>
        <g stroke="#000" class="edge">
            <path fill="none" d="M450.55 111.17C521.68 159.68 734.23 302.23 813 328c73.8 24.14 287.32 40.43 409.13 48.05"/>
            <path d="m1222.41 372.56 9.77 4.11-10.2 2.88z"/>
        </g>
        <g stroke="#000" class="edge">
            <path fill="none" d="M468.91 108.85C527.18 127.75 636.23 161.8 731 184c71.33 16.71 153.32 30.9 213.38 40.37"/>
            <path d="m945.24 220.97 9.34 5-10.42 1.91z"/>
        </g>
        <g stroke="#000" class="edge">
            <path fill="none" d="M464.6 109.58C510.75 127.41 591.46 158.39 661 184c89.44 32.94 109.14 50.54 202 72 133.91 30.95 293.53 44.06 388.62 49.45"/>
            <path d="m1251.96 301.96 9.79 4.05-10.18 2.94z"/>
        </g>
        <g stroke="#000" class="edge">
            <path fill="none" d="M478.86 106.93c9.96 1.95 20.34 3.76 30.14 5.07 261.73 34.89 329.82 14.7 593 36 38.36 3.1 81.56 7.5 114.55 11.04"/>
            <path d="m1217.32 155.6 9.56 4.56-10.32 2.4z"/>
        </g>
        <g stroke="#000" class="edge">
            <path fill="none" d="M1808.35 104.46c-19.29 2.72-40.67 5.51-60.35 7.54-235.73 24.37-295.66 18.53-532 36-39.72 2.94-83.6 6.42-121.09 9.46"/>
            <path d="m1094.77 160.98-10.25-2.67 9.68-4.3z"/>
        </g>
        <g stroke="#000" class="edge">
            <path fill="none" d="M1843.7 110.88c-49.76 29.83-161.44 95.66-258.7 145.12-79.38 40.36-174.44 82.18-229.46 105.76"/>
            <path d="m1356.64 365.09-10.57.71 7.82-7.15z"/>
        </g>
        <g stroke="#000" class="edge">
            <path fill="none" d="M1814.68 106.33C1772.11 115.7 1712.11 130.3 1661 148c-37.23 12.89-42.9 25.98-81 36-81.51 21.44-310.28 38.42-445.73 46.96"/>
            <path d="m1134.48 234.45-10.19-2.87 9.76-4.12z"/>
        </g>
        <g stroke="#000" class="edge">
            <path fill="none" d="M1817.19 106.96c-34.61 8.89-80.3 22.66-118.19 41.04-76.2 36.96-79.9 72.96-157 108-43.52 19.78-95.69 33.08-136.76 41.41"/>
            <path d="m1405.81 300.86-10.49-1.49 9.13-5.38z"/>
        </g>
        <g stroke="#000" class="edge">
            <path fill="none" d="M1807.36 104.16c-19.04 2.67-40.04 5.5-59.36 7.84-154.36 18.73-193.56 17.92-348 36-25.5 2.99-53.77 6.64-77.42 9.8"/>
            <path d="m1322.79 161.3-10.38-2.14 9.45-4.8z"/>
        </g>
        <g stroke="#000" class="edge">
            <path fill="none" d="M1406.67 103.72c-81.6 12.42-231.52 35.24-323.62 49.25"/>
            <path d="m1083.36 156.46-10.42-1.95 9.36-4.97z"/>
        </g>
        <g stroke="#000" class="edge">
            <path fill="none" d="M1432.94 109.99c-19.5 9.89-44.85 23.63-65.94 38.01-20.59 14.04-20.42 25.44-43 36-18.86 8.83-129.81 27.44-209.85 40.09"/>
            <path d="m1114.49 227.58-10.43-1.9 9.34-5.01z"/>
        </g>
        <g stroke="red" stroke-width="2" class="edge">
            <path fill="none" d="M1470.29 111.95c2.93 7.87 6.48 17.43 9.76 26.26"/>
            <path fill="red" d="m1483.38 137.13.2 10.59-6.76-8.15z"/>
        </g>
        <g stroke="#000" class="edge">
            <path fill="none" d="M1425.67 108.83c-32.76 11.82-79.83 28.81-113.62 41"/>
            <path d="m1313.05 153.19-10.6.1 8.22-6.69z"/>
        </g>
        <g class="node" transform="translate(4 472)">
            <ellipse cx="1458" cy="-234" fill="none" stroke="#000" rx="70.69" ry="18"/>
            <text x="1458" y="-230.3" font-family="Times,serif" font-size="14" text-anchor="middle">:core:domain</text>
        </g>
        <g stroke="#000" class="edge">
            <path fill="none" d="M1516.47 105.44c23.66 7.6 49.41 20.58 63.53 42.56 8.65 13.46 8.69 22.57 0 36-12.27 18.97-33.12 31.21-53.91 39.09"/>
            <path d="m1527.17 226.42-10.6-.01 8.29-6.6z"/>
        </g>
        <g stroke="#000" class="edge">
            <path fill="none" d="M1576.78 106.74c-11.9 1.9-24.19 3.73-35.78 5.26-155.89 20.53-338.19 36.92-445.26 45.78"/>
            <path d="m1095.87 161.28-10.26-2.67 9.68-4.31z"/>
        </g>
        <g stroke="#000" class="edge">
            <path fill="none" d="M1579.46 107.24c-66.78 12.95-163.54 32.61-179.46 40.76-21.29 10.9-18.42 25.68-40 36-5.59 2.67-150.46 25.35-246.38 40.16"/>
            <path d="m1114.05 227.64-10.42-1.94 9.35-4.98z"/>
        </g>
        <g stroke="#000" class="edge">
            <path fill="none" d="M1609.06 110.88c-22.49 10.22-51.88 23.58-75.83 34.47"/>
            <path d="m1534.56 148.59-10.55.95 7.66-7.32z"/>
        </g>
        <g stroke="#000" class="edge">
            <path fill="none" d="M1578.85 107.19c-73.65 13.79-191.98 35.94-258.76 48.44"/>
            <path d="m1320.7 159.07-10.48-1.6 9.19-5.28z"/>
        </g>
        <g class="node" transform="translate(4 472)">
            <ellipse cx="2010" cy="-162" fill="none" stroke="#000" rx="78.79" ry="18"/>
            <text x="2010" y="-158.3" font-family="Times,serif" font-size="14" text-anchor="middle">:core:database</text>
        </g>
        <g stroke="#000" class="edge">
            <path fill="none" d="M1720.75 104.64c90.21 11.75 230.46 31.51 252.25 43.36 37.87 20.6 49.52 31.76 65 72 7.9 20.54.39 44.7-8.26 62.66"/>
            <path d="m2032.63 284.68-7.72 7.26 1.51-10.49z"/>
        </g>
        <g stroke="#000" class="edge">
            <path fill="none" d="M640.56 106.37c9.44 1.97 19.23 3.92 28.44 5.63 86.6 16.04 186.36 31.43 254.34 41.45"/>
            <path d="m924.17 150.04 9.39 4.91-10.41 2.01z"/>
        </g>
        <g stroke="#000" class="edge">
            <path fill="none" d="M599.93 111.95c12.93 19.13 35.9 50.41 61.07 72.05 96.07 82.59 126.16 102.93 246 144 103.17 35.36 228.66 47.34 311.91 51.29"/>
            <path d="m1219.26 375.8 9.84 3.94-10.15 3.05z"/>
        </g>
        <g stroke="#000" class="edge">
            <path fill="none" d="M626.67 109.45C675.18 127.83 762.28 160.05 838 184c41.92 13.26 89.56 26.42 126.89 36.31"/>
            <path d="m965.87 216.95 8.78 5.93-10.57.84z"/>
        </g>
        <g stroke="#000" class="edge">
            <path fill="none" d="M610.5 111.31c26.88 19.72 74.93 52.72 120.5 72.69 55.7 24.41 76.35 11.49 132 36 27.42 12.07 28.8 25.86 57 36 109.36 39.32 244.12 50.19 329.82 52.82"/>
            <path d="m1250.12 305.33 9.9 3.77-10.09 3.22z"/>
        </g>
        <g stroke="#000" class="edge">
            <path fill="none" d="M639.61 106.76c9.72 1.98 19.84 3.83 29.39 5.24 191.05 28.13 240.71 18.28 433 36 38.19 3.52 81.23 7.88 114.18 11.31"/>
            <path d="m1216.93 155.87 9.58 4.51-10.31 2.45z"/>
        </g>
        <g stroke="#000" class="edge">
            <path fill="none" d="M814.16 109.17c38.02 11.18 91.21 26.82 131.62 38.71"/>
            <path d="m946.89 144.56 8.61 6.18-10.58.53z"/>
        </g>
        <g stroke="#000" class="edge">
            <path fill="none" d="M759.05 112.27c-23.23 57.77-98.38 244.6-126.4 314.24"/>
            <path d="m635.85 427.93-6.97 7.98.48-10.59z"/>
        </g>
        <g stroke="#000" class="edge">
            <path fill="none" d="M774.17 111.96C796.88 156.91 865.63 279.03 964 328c44.55 22.17 173.69 37.67 260.97 45.95"/>
            <path d="m1225.5 370.49 9.63 4.41-10.28 2.56z"/>
        </g>
        <g stroke="#000" class="edge">
            <path fill="none" d="M787.33 111.64c25.2 19.14 68.87 50.7 109.67 72.36 24.91 13.22 53.86 25.13 78.37 34.3"/>
            <path d="m976.71 215.06 8.17 6.74-10.59-.17z"/>
        </g>
        <g stroke="#000" class="edge">
            <path fill="none" d="M829.33 106.51c11.2 1.92 22.77 3.83 33.67 5.49 126.57 19.32 275.97 37.63 353.8 46.83"/>
            <path d="m1217.32 155.37 9.52 4.64-10.34 2.31z"/>
        </g>
        <g stroke="#000" class="edge">
            <path fill="none" d="M1987.16 106.9c-10.95 1.99-22.38 3.81-33.16 5.1-326.08 38.9-410.29 14.87-738 36-39.91 2.57-84 6.01-121.59 9.12"/>
            <path d="m1094.25 160.65-10.26-2.66 9.67-4.32z"/>
        </g>
        <g stroke="#000" class="edge">
            <path fill="none" d="M1984.43 106.18c-66.38 12.75-170.41 32.95-209.43 41.82-62.65 14.24-76.67 25.16-140 36-172.6 29.55-375.88 43.06-497.39 48.91"/>
            <path d="m1137.71 236.41-10.16-3.02 9.83-3.97z"/>
        </g>
        <g stroke="#000" class="edge">
            <path fill="none" d="M1988.17 107.02c-42.25 9.73-101.91 24.49-153.17 40.98-83.6 26.89-104.41 34.9-184 72-30.29 14.12-34.66 24.41-66 36-57.35 21.2-125.4 34.94-176.02 43.1"/>
            <path d="m1409.53 302.56-10.43-1.9 9.33-5.02z"/>
        </g>
        <g stroke="#000" class="edge">
            <path fill="none" d="M1986.67 106.85c-10.81 1.96-22.06 3.8-32.67 5.15-244.76 31.21-308.43 11.99-554 36-25.75 2.52-54.27 6.15-78.01 9.41"/>
            <path d="m1322.17 160.92-10.39-2.09 9.42-4.84z"/>
        </g>
        <g stroke="#000" class="edge">
            <path fill="none" d="M2054.89 112.28c6.12 9.96 12.95 22.99 16.11 35.72 11.55 46.59 19.17 63.99 0 108-5.1 11.71-14.21 22-23.67 30.32"/>
            <path d="m2049.34 289.2-9.95 3.63 5.51-9.04z"/>
        </g>
        <g stroke="#000" class="edge">
            <path fill="none" d="M1183.87 110.02c-36.07 11.02-85.16 26.03-122.94 37.58"/>
            <path d="m1061.67 151.03-10.58-.42 8.54-6.27z"/>
        </g>
        <g stroke="#000" class="edge">
            <path fill="none" d="M1217.17 111.91C1198.69 131 1166.63 162.25 1135 184c-18.14 12.47-39.61 23.84-58.41 32.82"/>
            <path d="m1077.87 220.08-10.54 1.08 7.57-7.42z"/>
        </g>
        <g stroke="#000" class="edge">
            <path fill="none" d="M1224.28 111.94c-8.19 18.32-17.86 48.11-8.28 72.06 17.42 43.55 58.03 80.58 86.96 102.78"/>
            <path d="m1305.24 284.12 5.91 8.79-10.1-3.19z"/>
        </g>
        <g stroke="#000" class="edge">
            <path fill="none" d="M1286.88 109.67c42.05 11.46 100.43 27.36 143.82 39.18"/>
            <path d="m1431.82 145.53 8.73 6-10.57.75z"/>
        </g>
        <g stroke="#000" class="edge">
            <path fill="none" d="M1241.96 111.95c4.31 8.16 9.59 18.14 14.39 27.23"/>
            <path d="m1259.55 137.73 1.58 10.48-7.77-7.2z"/>
        </g>
        <g stroke="#000" class="edge">
            <path fill="none" d="M302.31 106.77c14.2 1.89 28.87 3.72 42.69 5.23 200.94 21.95 437.28 38.78 565.22 47.15"/>
            <path d="m910.62 155.67 9.75 4.14-10.2 2.84z"/>
        </g>
        <g stroke="#000" class="edge">
            <path fill="none" d="M198.4 111.77C167.72 135.74 118 182.91 118 237v74c0 86.78 280.31 123.1 422.84 135.96"/>
            <path d="m541.21 443.48 9.65 4.36-10.27 2.61z"/>
        </g>
        <g stroke="#000" class="edge">
            <path fill="none" d="M275.66 109.93C347.44 129.42 478.92 163.47 593 184c115.52 20.79 249.71 35.71 338.6 44.32"/>
            <path d="m932.05 224.85 9.62 4.44-10.29 2.53z"/>
        </g>
        <g stroke="#000" class="edge">
            <path fill="none" d="M300.95 106.98c14.62 1.91 29.78 3.7 44.05 5.02 335.39 31.09 421.1 11.04 757 36 38.38 2.85 81.58 7.25 114.56 10.86"/>
            <path d="m1217.34 155.42 9.55 4.58-10.32 2.38z"/>
        </g>
        <g class="node" transform="translate(4 472)">
            <ellipse cx="521" cy="-234" fill="none" stroke="#000" rx="68.79" ry="18"/>
            <text x="521" y="-230.3" font-family="Times,serif" font-size="14" text-anchor="middle">:core:ffmpeg</text>
        </g>
        <g stroke="#000" class="edge">
            <path fill="none" d="M256.76 111.29c56.22 26.35 166.85 78.19 226.98 106.37"/>
            <path d="m485.37 214.56 7.57 7.41-10.54-1.07z"/>
        </g>
        <g stroke="#000" class="edge">
            <path fill="none" d="M1250.36 394.27c-12.33 2.09-25.24 4.13-37.36 5.73-180.92 23.92-394.46 40.12-508.83 47.82"/>
            <path d="m704.3 451.32-10.21-2.82 9.74-4.16z"/>
        </g>
        <g class="node" transform="translate(4 472)">
            <ellipse cx="1458" cy="-18" fill="none" stroke="#000" rx="64.99" ry="18"/>
            <text x="1458" y="-14.3" font-family="Times,serif" font-size="14" text-anchor="middle">:core:model</text>
        </g>
        <g stroke="red" stroke-width="2" class="edge">
            <path fill="none" d="M1343.73 398.54c22.7 10.45 52.78 24.3 76.92 35.42"/>
            <path fill="red" d="m1422.3 430.86 7.62 7.37-10.55-1.01z"/>
        </g>
        <g stroke="#000" class="edge">
            <path fill="none" d="M1297.68 325.71c-23.03 9.68-52.83 23.3-77.68 38.29-22.53 13.59-22.51 26.37-47 36-82.75 32.55-333.78 45.74-466.57 50.54"/>
            <path d="m706.42 454.05-10.12-3.15 9.87-3.85z"/>
        </g>
        <g stroke="red" stroke-width="2" class="edge">
            <path fill="none" d="M1328.95 327.95c-2.82 7.87-6.23 17.43-9.38 26.26"/>
            <path fill="red" d="m1322.83 355.48-6.66 8.24.07-10.59z"/>
        </g>
        <g stroke="#000" class="edge">
            <path fill="none" d="M1358 327.25c13.08 9.83 29.33 23.08 42 36.75 18.15 19.58 35.22 44.78 46.83 63.36"/>
            <path d="m1449.82 425.54 2.25 10.35-8.21-6.68z"/>
        </g>
        <g stroke="#000" class="edge">
            <path fill="none" d="M1446.66 181.28c-145.3 47.88-614.86 202.59-772.5 254.53"/>
            <path d="m674.83 439.28-10.59-.2 8.4-6.45z"/>
        </g>
        <g stroke="red" stroke-width="2" class="edge">
            <path fill="none" d="M1563.71 173.57c83.49 8.1 223.41 23.64 342.29 46.43 4.76.91 9.69 1.97 14.61 3.1"/>
            <path fill="red" d="m1921.72 219.77 8.91 5.73-10.54 1.07z"/>
        </g>
        <g stroke="#000" class="edge">
            <path fill="none" d="M1419.81 175.15c-29.54 3.18-64.31 6.59-95.81 8.85-389.11 27.88-487.83 9.02-877 36-21.4 1.48-44.25 3.44-66.11 5.5"/>
            <path d="m381.21 228.99-10.29-2.53 9.63-4.44z"/>
        </g>
        <g stroke="#000" class="edge">
            <path fill="none" d="M1483.22 183.95c-3.15 7.87-6.97 17.43-10.5 26.26"/>
            <path d="m1475.87 211.74-6.96 7.98.46-10.58z"/>
        </g>
        <g stroke="#000" class="edge">
            <path fill="none" d="M1418.97 174.84c-29.38 3.09-63.79 6.53-94.97 9.16-264.72 22.33-579.44 40.85-722.01 48.81"/>
            <path d="m601.79 236.33-10.17-2.94 9.79-4.05z"/>
        </g>
        <g stroke="#000" class="edge">
            <path fill="none" d="M1312.44 172.6c25.4 3.33 58.32 7.64 87.56 11.4 119.5 15.37 258.22 32.85 342.25 43.39"/>
            <path d="m1742.74 223.92 9.49 4.72-10.36 2.23z"/>
        </g>
        <g stroke="#000" class="edge">
            <path fill="none" d="m1234.59 177.33-144.64 42.18"/>
            <path d="m1090.78 222.92-10.58-.56 8.62-6.16z"/>
        </g>
        <g stroke="#000" class="edge">
            <path fill="none" d="M1312.88 172.35c72.92 9.52 214.65 30.08 229.12 47.65 52.34 63.52-19.22 163.21-57.98 208.79"/>
            <path d="m1486.62 431.14-9.19 5.26 3.9-9.85z"/>
        </g>
        <g stroke="#000" class="edge">
            <path fill="none" d="M1936.47 252.19C1886.09 270.6 1790.8 304.42 1708 328c-135.21 38.5-168.97 51.15-308 72-250.06 37.49-549.35 48.49-692.94 51.69"/>
            <path d="m707.07 455.19-10.08-3.28 9.93-3.71z"/>
        </g>
        <g stroke="#000" class="edge">
            <path fill="none" d="M1929.84 250.28c-7.9 1.99-16.1 3.98-23.84 5.72-83.01 18.62-110.19 1.59-188 36-24.39 10.78-23.39 25.74-48 36-48.48 20.2-185.84 36.52-276.18 45.48"/>
            <path d="m1394.16 376.96-10.3-2.51 9.61-4.46z"/>
        </g>
        <g stroke="red" stroke-width="2" class="edge">
            <path fill="none" d="M1931.03 250.63c-8.24 2.04-16.87 3.95-25.03 5.37-171.92 29.92-376.1 43.72-487.77 49.44"/>
            <path fill="red" d="m1418.21 308.95-10.16-3 9.81-4z"/>
        </g>
        <g stroke="#000" class="edge">
            <path fill="none" d="M1982.17 255.95c4.88 8.13 10.83 18.05 16.26 27.11"/>
            <path d="m2001.49 281.35 2.14 10.37-8.14-6.77z"/>
        </g>
        <g stroke="#000" class="edge">
            <path fill="none" d="M1884.29 183.24c-11 9.05-24.89 20.49-37.03 30.48"/>
            <path d="m1849.14 216.71-9.94 3.66 5.49-9.06z"/>
        </g>
        <g stroke="#000" class="edge">
            <path fill="none" d="M1860.76 178.78c-35.08 9.92-85.6 25.05-128.76 41.22-36.89 13.83-43.27 24.65-81 36-79.13 23.8-172.83 37.83-237.55 45.41"/>
            <path d="m1413.65 304.91-10.33-2.34 9.54-4.62z"/>
        </g>
        <g stroke="#000" class="edge">
            <path fill="none" d="M1920.12 183.59c8.55 8.8 19.21 19.78 28.64 29.49"/>
            <path d="m1951.54 210.92 4.46 9.61-9.48-4.73z"/>
        </g>
        <g stroke="#000" class="edge">
            <path fill="none" d="M300.1 255.61c62.53 38.35 216.91 133.01 286.67 175.79"/>
            <path d="m588.94 428.62 6.7 8.22-10.36-2.25z"/>
        </g>
        <g stroke="#000" class="edge">
            <path fill="none" d="M1433.81 254.54c-18.04 9.94-41.66 22.96-61.28 33.77"/>
            <path d="m1373.99 291.5-10.44 1.77 7.06-7.9z"/>
        </g>
        <g stroke="#000" class="edge">
            <path fill="none" d="M1462 256.15v169.46"/>
            <path d="m1465.5 425.77-3.5 10-3.5-10z"/>
        </g>
        <g stroke="#000" class="edge">
            <path fill="none" d="M532.77 256.15c16.93 37.35 57.22 126.22 77.35 170.64"/>
            <path d="m613.38 425.51.94 10.55-7.31-7.66z"/>
        </g>
        <g stroke="#000" class="edge">
            <path fill="none" d="M1963.55 323.98c-103.36 26.59-338.5 87.08-446.03 114.74"/>
            <path d="m1518.39 442.11-10.56-.9 8.82-5.88z"/>
        </g>
    </g>
</svg>
