<svg xmlns="http://www.w3.org/2000/svg" width="1248" height="188pt" viewBox="0 0 936.13 188">
    <g class="graph">
        <path fill="#fff" stroke="transparent" d="M0 188V0h936.13v188z"/>
        <g class="node" transform="translate(4 184)">
            <ellipse cx="373.74" cy="-162" fill="none" stroke="#000" rx="79.89" ry="18"/>
            <text x="373.74" y="-158.3" font-family="Times,serif" font-size="14" text-anchor="middle">:feature:splash</text>
        </g>
        <g class="node" transform="translate(4 184)">
            <ellipse cx="297.74" cy="-90" fill="none" stroke="#000" rx="45.49" ry="18"/>
            <text x="297.74" y="-86.3" font-family="Times,serif" font-size="14" text-anchor="middle">:core:ui</text>
        </g>
        <g stroke="red" stroke-width="2" class="edge">
            <path fill="none" d="M359.73 39.59c-9.96 9.17-22.48 20.71-33.34 30.71"/>
            <path fill="red" d="m328.57 73.05-9.73 4.2 4.98-9.35z"/>
        </g>
        <g class="node" transform="translate(4 184)">
            <ellipse cx="100.74" cy="-18" fill="none" stroke="#000" rx="100.98" ry="18"/>
            <text x="100.74" y="-14.3" font-family="Times,serif" font-size="14" text-anchor="middle">:core:designsystem</text>
        </g>
        <g stroke="#000" class="edge">
            <path fill="none" d="M337.13 37.52c-26.04 9.81-60.3 23.63-89.39 38.48-39.54 20.18-82.46 47.72-110.86 66.8"/>
            <path d="m138.8 145.72-10.25 2.71 6.33-8.5z"/>
        </g>
        <g class="node" transform="translate(4 184)">
            <ellipse cx="450.74" cy="-90" fill="none" stroke="#000" rx="89.08" ry="18"/>
            <text x="450.74" y="-86.3" font-family="Times,serif" font-size="14" text-anchor="middle">:feature:common</text>
        </g>
        <g stroke="#000" class="edge">
            <path fill="none" d="M395.99 39.59c9.8 8.91 22.06 20.05 32.84 29.85"/>
            <path d="m431.31 66.97 5.05 9.32-9.76-4.14z"/>
        </g>
        <g class="node" transform="translate(4 184)">
            <ellipse cx="644.74" cy="-90" fill="none" stroke="#000" rx="81.49" ry="18"/>
            <text x="644.74" y="-86.3" font-family="Times,serif" font-size="14" text-anchor="middle">:core:datastore</text>
        </g>
        <g stroke="#000" class="edge">
            <path fill="none" d="M428.08 36c45.25 11.69 111.81 28.88 159.99 41.33"/>
            <path d="m588.95 73.94 8.8 5.89-10.55.89z"/>
        </g>
        <g stroke="#000" class="edge">
            <path fill="none" d="M268.77 106.72c-30.34 10.78-75.85 26.95-111.24 39.52"/>
            <path d="m158.43 149.64-10.6.05 8.25-6.65z"/>
        </g>
        <g class="node" transform="translate(4 184)">
            <ellipse cx="297.74" cy="-18" fill="none" stroke="#000" rx="77.99" ry="18"/>
            <text x="297.74" y="-14.3" font-family="Times,serif" font-size="14" text-anchor="middle">:core:analytics</text>
        </g>
        <g stroke="red" stroke-width="2" class="edge">
            <path fill="none" d="M301.74 112.3v25.59"/>
            <path fill="red" d="m305.24 137.9-3.5 10-3.5-10z"/>
        </g>
        <g class="node" transform="translate(4 184)">
            <ellipse cx="458.74" cy="-18" fill="none" stroke="#000" rx="64.99" ry="18"/>
            <text x="458.74" y="-14.3" font-family="Times,serif" font-size="14" text-anchor="middle">:core:model</text>
        </g>
        <g stroke="#000" class="edge">
            <path fill="none" d="M331.27 107.84c24.77 10.77 60.47 26.29 88.42 38.44"/>
            <path d="m421.45 143.23 7.78 7.2-10.57-.78z"/>
        </g>
        <g stroke="#000" class="edge">
            <path fill="none" d="M609.3 109.85c-29.26 11-69.23 26.05-100.04 37.64"/>
            <path d="m510.19 150.88-10.59.25 8.13-6.8z"/>
        </g>
        <g class="node" transform="translate(4 184)">
            <ellipse cx="650.74" cy="-18" fill="none" stroke="#000" rx="108.58" ry="18"/>
            <text x="650.74" y="-14.3" font-family="Times,serif" font-size="14" text-anchor="middle">:core:datastore-proto</text>
        </g>
        <g stroke="#000" class="edge">
            <path fill="none" d="M650.22 112.3c.67 7.72 1.46 16.99 2.2 25.59"/>
            <path d="m655.91 137.63-2.64 10.27-4.34-9.67z"/>
        </g>
        <g class="node" transform="translate(4 184)">
            <ellipse cx="852.74" cy="-18" fill="none" stroke="#000" rx="75.29" ry="18"/>
            <text x="852.74" y="-14.3" font-family="Times,serif" font-size="14" text-anchor="middle">:core:common</text>
        </g>
        <g stroke="#000" class="edge">
            <path fill="none" d="M691.33 109.33c33.03 11.12 78.93 26.57 114 38.37"/>
            <path d="m806.55 144.42 8.36 6.5-10.59.13z"/>
        </g>
    </g>
</svg>
