<svg xmlns="http://www.w3.org/2000/svg" width="700pt" height="188pt" viewBox="0 0 700.13 188">
    <g class="graph">
        <path fill="#fff" stroke="transparent" d="M0 188V0h700.13v188z"/>
        <g class="node" transform="translate(4 184)">
            <ellipse cx="325.74" cy="-162" fill="none" stroke="#000" rx="79.89" ry="18"/>
            <text x="325.74" y="-158.3" font-family="Times,serif" font-size="14" text-anchor="middle">:feature:splash</text>
        </g>
        <g class="node" transform="translate(4 184)">
            <ellipse cx="249.74" cy="-90" fill="none" stroke="#000" rx="45.49" ry="18"/>
            <text x="249.74" y="-86.3" font-family="Times,serif" font-size="14" text-anchor="middle">:core:ui</text>
        </g>
        <g stroke="red" stroke-width="2" class="edge">
            <path fill="none" d="M311.73 39.59c-9.96 9.17-22.48 20.71-33.34 30.71"/>
            <path fill="red" d="m280.57 73.05-9.73 4.2 4.98-9.35z"/>
        </g>
        <g class="node" transform="translate(4 184)">
            <ellipse cx="100.74" cy="-18" fill="none" stroke="#000" rx="100.98" ry="18"/>
            <text x="100.74" y="-14.3" font-family="Times,serif" font-size="14" text-anchor="middle">:core:designsystem</text>
        </g>
        <g stroke="#000" class="edge">
            <path fill="none" d="M284.44 36.87c-25.93 9.05-58.43 22.3-84.7 39.13-28.09 18.01-55.38 44.85-73.45 64.35"/>
            <path d="m128.69 142.91-9.32 5.03 4.14-9.75z"/>
        </g>
        <g class="node" transform="translate(4 184)">
            <ellipse cx="402.74" cy="-90" fill="none" stroke="#000" rx="89.08" ry="18"/>
            <text x="402.74" y="-86.3" font-family="Times,serif" font-size="14" text-anchor="middle">:feature:common</text>
        </g>
        <g stroke="#000" class="edge">
            <path fill="none" d="M347.99 39.59c9.8 8.91 22.06 20.05 32.84 29.85"/>
            <path d="m383.31 66.97 5.05 9.32-9.76-4.14z"/>
        </g>
        <g class="node" transform="translate(4 184)">
            <ellipse cx="590.74" cy="-90" fill="none" stroke="#000" rx="81.49" ry="18"/>
            <text x="590.74" y="-86.3" font-family="Times,serif" font-size="14" text-anchor="middle">:core:datastore</text>
        </g>
        <g stroke="#000" class="edge">
            <path fill="none" d="M379.59 36.17c44.09 11.64 108.51 28.66 155.36 41.04"/>
            <path d="m535.9 73.84 8.77 5.93-10.56.83z"/>
        </g>
        <g stroke="#000" class="edge">
            <path fill="none" d="M225.36 108.33C203.5 118.6 172.9 132.98 148 144.68"/>
            <path d="m149.3 147.93-10.54 1.09 7.56-7.42z"/>
        </g>
        <g class="node" transform="translate(4 184)">
            <ellipse cx="297.74" cy="-18" fill="none" stroke="#000" rx="77.99" ry="18"/>
            <text x="297.74" y="-14.3" font-family="Times,serif" font-size="14" text-anchor="middle">:core:analytics</text>
        </g>
        <g stroke="red" stroke-width="2" class="edge">
            <path fill="none" d="M265.12 111.59c5.71 8.33 12.76 18.61 19.14 27.92"/>
            <path fill="red" d="m287.35 137.82 2.76 10.22-8.54-6.26z"/>
        </g>
        <g class="node" transform="translate(4 184)">
            <ellipse cx="458.74" cy="-18" fill="none" stroke="#000" rx="64.99" ry="18"/>
            <text x="458.74" y="-14.3" font-family="Times,serif" font-size="14" text-anchor="middle">:core:model</text>
        </g>
        <g stroke="#000" class="edge">
            <path fill="none" d="M287.32 106.25c34.04 11.4 87.09 29.17 125.94 42.18"/>
            <path d="m414.44 145.13 8.37 6.5-10.59.14z"/>
        </g>
        <g stroke="#000" class="edge">
            <path fill="none" d="M564.79 110.88c-19 10.08-43.74 23.2-64.11 34"/>
            <path d="m502.14 148.07-10.47 1.59 7.19-7.78z"/>
        </g>
        <g class="node" transform="translate(4 184)">
            <ellipse cx="616.74" cy="-18" fill="none" stroke="#000" rx="75.29" ry="18"/>
            <text x="616.74" y="-14.3" font-family="Times,serif" font-size="14" text-anchor="middle">:core:common</text>
        </g>
        <g stroke="#000" class="edge">
            <path fill="none" d="m601.17 112.3 9.71 26.15"/>
            <path d="m614.19 137.3.2 10.6-6.76-8.16z"/>
        </g>
    </g>
</svg>
