<svg xmlns="http://www.w3.org/2000/svg" width="448" height="188pt" viewBox="0 0 336.39 188">
    <g class="graph">
        <path fill="#fff" stroke="transparent" d="M0 188V0h336.39v188z"/>
        <g class="node" transform="translate(4 184)">
            <ellipse cx="169.39" cy="-162" fill="none" stroke="#000" rx="74.99" ry="18"/>
            <text x="169.39" y="-158.3" font-family="Times,serif" font-size="14" text-anchor="middle">:core:network</text>
        </g>
        <g class="node" transform="translate(4 184)">
            <ellipse cx="75.39" cy="-18" fill="none" stroke="#000" rx="75.29" ry="18"/>
            <text x="75.39" y="-14.3" font-family="Times,serif" font-size="14" text-anchor="middle">:core:common</text>
        </g>
        <g stroke="#000" class="edge">
            <path fill="none" d="M131.81 37.05C113.74 45.41 94.24 57.98 83.39 76c-11.12 18.48-11.31 43.22-9.18 61.93"/>
            <path d="m77.68 137.5-2.06 10.39-4.87-9.41z"/>
        </g>
        <g class="node" transform="translate(4 184)">
            <ellipse cx="263.39" cy="-18" fill="none" stroke="#000" rx="64.99" ry="18"/>
            <text x="263.39" y="-14.3" font-family="Times,serif" font-size="14" text-anchor="middle">:core:model</text>
        </g>
        <g stroke="#000" class="edge">
            <path fill="none" d="M214.97 37.05c18.08 8.36 37.58 20.93 48.42 38.95 11.12 18.48 11.32 43.22 9.19 61.93"/>
            <path d="m276.04 138.48-4.87 9.41-2.07-10.39z"/>
        </g>
        <g class="node" transform="translate(4 184)">
            <ellipse cx="169.39" cy="-90" fill="none" stroke="#000" rx="81.49" ry="18"/>
            <text x="169.39" y="-86.3" font-family="Times,serif" font-size="14" text-anchor="middle">:core:datastore</text>
        </g>
        <g stroke="red" stroke-width="2" class="edge">
            <path fill="none" d="M173.39 40.3v25.59"/>
            <path fill="red" d="m176.89 65.9-3.5 10-3.5-10z"/>
        </g>
        <g stroke="#000" class="edge">
            <path fill="none" d="M151.12 111.59c-12.41 9.24-28.04 20.87-41.53 30.92"/>
            <path d="m111.62 145.36-10.11 3.17 5.93-8.78z"/>
        </g>
        <g stroke="red" stroke-width="2" class="edge">
            <path fill="none" d="M195.67 111.59c12.5 9.31 28.26 21.04 41.82 31.14"/>
            <path fill="red" d="m239.67 139.99 5.93 8.78-10.11-3.16z"/>
        </g>
    </g>
</svg>
