<svg xmlns="http://www.w3.org/2000/svg" width="1277pt" height="404pt" viewBox="0 0 1277.48 404">
    <g class="graph">
        <path fill="#fff" stroke="transparent" d="M0 404V0h1277.48v404z"/>
        <g class="node" transform="translate(4 400)">
            <ellipse cx="672.74" cy="-378" fill="none" stroke="#000" rx="67.69" ry="18"/>
            <text x="672.74" y="-374.3" font-family="Times,serif" font-size="14" text-anchor="middle">:feature:tool</text>
        </g>
        <g class="node" transform="translate(4 400)">
            <ellipse cx="350.74" cy="-306" fill="none" stroke="#000" rx="45.49" ry="18"/>
            <text x="350.74" y="-302.3" font-family="Times,serif" font-size="14" text-anchor="middle">:core:ui</text>
        </g>
        <g stroke="#000" class="edge">
            <path fill="none" d="M626.07 34.01C565.3 47.23 464.11 69.22 403.98 82.3"/>
            <path d="m404.49 85.77-10.52-1.3 9.03-5.54z"/>
        </g>
        <g class="node" transform="translate(4 400)">
            <ellipse cx="100.74" cy="-234" fill="none" stroke="#000" rx="100.98" ry="18"/>
            <text x="100.74" y="-230.3" font-family="Times,serif" font-size="14" text-anchor="middle">:core:designsystem</text>
        </g>
        <g stroke="#000" class="edge">
            <path fill="none" d="M611.02 26.56C535.01 31.98 406.77 45.15 300.74 76c-57.47 16.72-119.75 47.36-158.32 67.95"/>
            <path d="m144.08 147.03-10.47 1.67 7.15-7.83z"/>
        </g>
        <g class="node" transform="translate(4 400)">
            <ellipse cx="1006.74" cy="-306" fill="none" stroke="#000" rx="89.08" ry="18"/>
            <text x="1006.74" y="-302.3" font-family="Times,serif" font-size="14" text-anchor="middle">:feature:common</text>
        </g>
        <g stroke="#000" class="edge">
            <path fill="none" d="M728.2 33.78c57.14 11.98 149.69 31.38 213.2 44.69"/>
            <path d="m942.26 75.07 9.07 5.48-10.5 1.37z"/>
        </g>
        <g class="node" transform="translate(4 400)">
            <ellipse cx="672.74" cy="-234" fill="none" stroke="#000" rx="70.69" ry="18"/>
            <text x="672.74" y="-230.3" font-family="Times,serif" font-size="14" text-anchor="middle">:core:domain</text>
        </g>
        <g stroke="#000" class="edge">
            <path fill="none" d="M676.74 40.13v97.48"/>
            <path d="m680.24 137.81-3.5 10-3.5-10z"/>
        </g>
        <g class="node" transform="translate(4 400)">
            <ellipse cx="818.74" cy="-306" fill="none" stroke="#000" rx="81.49" ry="18"/>
            <text x="818.74" y="-302.3" font-family="Times,serif" font-size="14" text-anchor="middle">:core:download</text>
        </g>
        <g stroke="red" stroke-width="2" class="edge">
            <path fill="none" d="M708.06 38.02c21.28 10.2 49.67 23.81 72.88 34.94"/>
            <path fill="red" d="m782.7 69.92 7.51 7.48-10.53-1.17z"/>
        </g>
        <g stroke="#000" class="edge">
            <path fill="none" d="M318.66 105.1c-39.85 11.16-104.7 29.32-152.56 42.72"/>
            <path d="m167.03 151.19-10.57-.67 8.69-6.07z"/>
        </g>
        <g class="node" transform="translate(4 400)">
            <ellipse cx="297.74" cy="-234" fill="none" stroke="#000" rx="77.99" ry="18"/>
            <text x="297.74" y="-230.3" font-family="Times,serif" font-size="14" text-anchor="middle">:core:analytics</text>
        </g>
        <g stroke="#000" class="edge">
            <path fill="none" d="M342.18 111.59c-6.37 8.42-14.25 18.83-21.36 28.21"/>
            <path d="m323.41 142.18-8.83 5.86 3.25-10.08z"/>
        </g>
        <g class="node" transform="translate(4 400)">
            <ellipse cx="479.74" cy="-18" fill="none" stroke="#000" rx="64.99" ry="18"/>
            <text x="479.74" y="-14.3" font-family="Times,serif" font-size="14" text-anchor="middle">:core:model</text>
        </g>
        <g stroke="#000" class="edge">
            <path fill="none" d="M366.58 111.71c6.95 10.21 15.61 23.68 22.16 36.29 37.36 71.97 70.49 162.07 85.88 206.17"/>
            <path d="m478.01 353.26-.04 10.6-6.58-8.31z"/>
        </g>
        <g stroke="#000" class="edge">
            <path fill="none" d="M634.32 180.52C587.57 197.96 514.77 233.25 482.74 292c-10.25 18.8-9.11 43.32-5.91 61.87"/>
            <path d="m480.28 353.25-1.46 10.49-5.4-9.11z"/>
        </g>
        <g class="node" transform="translate(4 400)">
            <ellipse cx="677.74" cy="-162" fill="none" stroke="#000" rx="74.99" ry="18"/>
            <text x="677.74" y="-158.3" font-family="Times,serif" font-size="14" text-anchor="middle">:core:network</text>
        </g>
        <g stroke="#000" class="edge">
            <path fill="none" d="M677.98 184.3c.55 7.72 1.21 16.99 1.82 25.59"/>
            <path d="m683.3 209.67-2.78 10.23-4.2-9.73z"/>
        </g>
        <g stroke="#000" class="edge">
            <path fill="none" d="M790.34 110.54c-21.41 10.26-49.66 23.8-72.63 34.82"/>
            <path d="m719.08 148.58-10.53 1.17 7.5-7.48z"/>
        </g>
        <g class="node" transform="translate(4 400)">
            <ellipse cx="930.74" cy="-18" fill="none" stroke="#000" rx="75.29" ry="18"/>
            <text x="930.74" y="-14.3" font-family="Times,serif" font-size="14" text-anchor="middle">:core:common</text>
        </g>
        <g stroke="#000" class="edge">
            <path fill="none" d="M850.65 111.05c13.49 9.15 28.75 21.82 38.09 36.95 40.51 65.61 46.38 159.7 46.61 205.65"/>
            <path d="m938.85 353.75-3.55 9.98-3.45-10.01z"/>
        </g>
        <g class="node" transform="translate(4 400)">
            <ellipse cx="1046.74" cy="-90" fill="none" stroke="#000" rx="68.79" ry="18"/>
            <text x="1046.74" y="-86.3" font-family="Times,serif" font-size="14" text-anchor="middle">:core:ffmpeg</text>
        </g>
        <g stroke="#000" class="edge">
            <path fill="none" d="M885.04 105.67c28.27 7.64 60.31 20.57 82.7 42.33 37.05 36.01 17.66 62.98 43 108 5.43 9.64 12.41 19.51 19.02 28.07"/>
            <path d="m1032.69 282.14 3.48 10-8.96-5.65z"/>
        </g>
        <g class="node" transform="translate(4 400)">
            <ellipse cx="818.74" cy="-234" fill="none" stroke="#000" rx="57.39" ry="18"/>
            <text x="818.74" y="-230.3" font-family="Times,serif" font-size="14" text-anchor="middle">:core:data</text>
        </g>
        <g stroke="red" stroke-width="2" class="edge">
            <path fill="none" d="M822.74 112.3v25.59"/>
            <path fill="red" d="m826.24 137.9-3.5 10-3.5-10z"/>
        </g>
        <g class="node" transform="translate(4 400)">
            <ellipse cx="1142.74" cy="-162" fill="none" stroke="#000" rx="126.98" ry="18"/>
            <text x="1142.74" y="-158.3" font-family="Times,serif" font-size="14" text-anchor="middle">:okdownload:okdownload</text>
        </g>
        <g stroke="#000" class="edge">
            <path fill="none" d="M879.45 107.06c36.9 8.89 85.56 22.63 126.29 40.94 40.26 18.1 82.59 46.22 110.24 65.99"/>
            <path d="m1118.37 211.4 6.05 8.7-10.16-3.03z"/>
        </g>
        <g stroke="#000" class="edge">
            <path fill="none" d="M609.82 243.21c-36.93 5.94-79.78 19.29-107.08 48.79-15.3 16.54-19.45 42.26-20.12 61.81"/>
            <path d="m486.11 353.96-3.56 9.98-3.44-10.02z"/>
        </g>
        <g stroke="#000" class="edge">
            <path fill="none" d="M683.74 256.1c3.28 20.19 11.73 53.35 33 71.9 36.42 31.77 88.75 45.19 133.01 50.59"/>
            <path d="m850.38 375.14 9.56 4.57-10.32 2.39z"/>
        </g>
        <g class="node" transform="translate(4 400)">
            <ellipse cx="802.74" cy="-90" fill="none" stroke="#000" rx="81.49" ry="18"/>
            <text x="802.74" y="-86.3" font-family="Times,serif" font-size="14" text-anchor="middle">:core:datastore</text>
        </g>
        <g stroke="red" stroke-width="2" class="edge">
            <path fill="none" d="M709.79 254.71c17.65 9.88 40.63 22.75 59.78 33.48"/>
            <path fill="red" d="m771.33 285.16 7.02 7.94-10.44-1.83z"/>
        </g>
        <g stroke="red" stroke-width="2" class="edge">
            <path fill="none" d="M750.85 323.11 543.1 368.14"/>
            <path fill="red" d="m543.65 371.6-10.51-1.3 9.03-5.54z"/>
        </g>
        <g stroke="#000" class="edge">
            <path fill="none" d="M835.79 326.88c18.08 9.89 41.54 22.72 61.07 33.4"/>
            <path d="m898.72 357.31 7.09 7.87-10.45-1.73z"/>
        </g>
        <g stroke="#000" class="edge">
            <path fill="none" d="M1024.71 326.71c-16.16 9.75-37.12 22.4-54.75 33.04"/>
            <path d="m971.46 362.93-10.37 2.17 6.75-8.16z"/>
        </g>
        <g stroke="red" stroke-width="2" class="edge">
            <path fill="none" d="M793.53 181.5c-20.71 10.28-48.74 24.2-71.55 35.53"/>
            <path fill="red" d="m723.39 220.23-10.51 1.31 7.4-7.58z"/>
        </g>
        <g stroke="#000" class="edge">
            <path fill="none" d="M833.77 183.99c15.14 23.68 42.79 68.19 62.97 108.01 10.4 20.52 20.54 44.54 27.73 62.45"/>
            <path d="m927.81 353.38.43 10.59-6.94-8.01z"/>
        </g>
        <g stroke="#000" class="edge">
            <path fill="none" d="M820.81 184.13c-2.73 24.2-7.74 68.66-10.98 97.48"/>
            <path d="m813.28 282.27-4.6 9.54-2.36-10.33z"/>
        </g>
        <g class="node" transform="translate(4 400)">
            <ellipse cx="586.74" cy="-90" fill="none" stroke="#000" rx="78.79" ry="18"/>
            <text x="586.74" y="-86.3" font-family="Times,serif" font-size="14" text-anchor="middle">:core:database</text>
        </g>
        <g stroke="#000" class="edge">
            <path fill="none" d="M816.19 184.01c-8.6 20.1-25.57 53.17-50.45 71.99-28.45 21.52-65.64 34.36-98.42 41.99"/>
            <path d="m667.82 301.47-10.52-1.27 9.02-5.57z"/>
        </g>
        <g stroke="#000" class="edge">
            <path fill="none" d="M1148.22 256.11c.73 19.88-1.28 52.43-19.48 71.89-27.91 29.85-70.85 43.48-109.24 49.49"/>
            <path d="m1019.72 380.99-10.39-2.07 9.41-4.86z"/>
        </g>
        <g stroke="#000" class="edge">
            <path fill="none" d="M565.92 327.24c-14.69 9.61-33.47 21.89-49.37 32.3"/>
            <path d="m518.34 362.55-10.29 2.54 6.46-8.4z"/>
        </g>
    </g>
</svg>
