<svg xmlns="http://www.w3.org/2000/svg" width="660" height="260pt" viewBox="0 0 495.04 260">
    <g class="graph">
        <path fill="#fff" stroke="transparent" d="M0 260V0h495.04v260z"/>
        <g class="node" transform="translate(4 256)">
            <ellipse cx="184.39" cy="-234" fill="none" stroke="#000" rx="57.39" ry="18"/>
            <text x="184.39" y="-230.3" font-family="Times,serif" font-size="14" text-anchor="middle">:core:data</text>
        </g>
        <g class="node" transform="translate(4 256)">
            <ellipse cx="75.39" cy="-18" fill="none" stroke="#000" rx="75.29" ry="18"/>
            <text x="75.39" y="-14.3" font-family="Times,serif" font-size="14" text-anchor="middle">:core:common</text>
        </g>
        <g stroke="#000" class="edge">
            <path fill="none" d="M135.87 29.22C106.36 35.71 71.83 48.95 53.39 76c-27.72 40.67-5.8 100.35 11.12 134.46"/>
            <path d="m67.84 209.28 1.48 10.49-7.7-7.27z"/>
        </g>
        <g class="node" transform="translate(4 256)">
            <ellipse cx="408.39" cy="-90" fill="none" stroke="#000" rx="78.79" ry="18"/>
            <text x="408.39" y="-86.3" font-family="Times,serif" font-size="14" text-anchor="middle">:core:database</text>
        </g>
        <g stroke="#000" class="edge">
            <path fill="none" d="M212.79 38.47c40.08 25.4 119.94 76.03 165.56 104.95"/>
            <path d="m380.42 140.59 6.58 8.31-10.32-2.4z"/>
        </g>
        <g class="node" transform="translate(4 256)">
            <ellipse cx="230.39" cy="-90" fill="none" stroke="#000" rx="81.49" ry="18"/>
            <text x="230.39" y="-86.3" font-family="Times,serif" font-size="14" text-anchor="middle">:core:datastore</text>
        </g>
        <g stroke="#000" class="edge">
            <path fill="none" d="M201.32 39.73c7.05 9.99 15.3 23.24 20.07 36.27 7.28 19.89 10.5 43.68 11.91 61.66"/>
            <path d="m236.8 137.55-2.84 10.21-4.14-9.75z"/>
        </g>
        <g class="node" transform="translate(4 256)">
            <ellipse cx="133.39" cy="-162" fill="none" stroke="#000" rx="74.99" ry="18"/>
            <text x="133.39" y="-158.3" font-family="Times,serif" font-size="14" text-anchor="middle">:core:network</text>
        </g>
        <g stroke="red" stroke-width="2" class="edge">
            <path fill="none" d="M176.05 39.95c-6.14 8.42-13.68 18.77-20.47 28.08"/>
            <path fill="red" d="m158.34 70.19-8.71 6.02 3.06-10.14z"/>
        </g>
        <g class="node" transform="translate(4 256)">
            <ellipse cx="233.39" cy="-18" fill="none" stroke="#000" rx="64.99" ry="18"/>
            <text x="233.39" y="-14.3" font-family="Times,serif" font-size="14" text-anchor="middle">:core:model</text>
        </g>
        <g stroke="#000" class="edge">
            <path fill="none" d="M374.85 182.02c-27.16 10.86-63.97 25.59-92.67 37.07"/>
            <path d="m283.37 222.38-10.59.46 7.99-6.96z"/>
        </g>
        <g stroke="#000" class="edge">
            <path fill="none" d="M200.38 182.36c-23 10.39-53.54 24.18-78.19 35.31"/>
            <path d="m123.62 220.87-10.56.92 7.68-7.3z"/>
        </g>
        <g stroke="red" stroke-width="2" class="edge">
            <path fill="none" d="M235.13 184.3c.34 7.72.73 16.99 1.1 25.59"/>
            <path fill="red" d="m239.73 209.75-3.07 10.15-3.92-9.85z"/>
        </g>
        <g stroke="#000" class="edge">
            <path fill="none" d="M128.47 111.96c-5.26 10.3-11.88 23.77-17.08 36.04-8.67 20.48-17.12 44.19-23.16 61.99"/>
            <path d="m91.47 211.35-6.5 8.37-.14-10.59z"/>
        </g>
        <g stroke="red" stroke-width="2" class="edge">
            <path fill="none" d="M159.89 111.24c12.89 9.29 29.25 21.1 43.35 31.28"/>
            <path fill="red" d="m205.62 139.92 6.06 8.69-10.16-3.01z"/>
        </g>
        <g stroke="#000" class="edge">
            <path fill="none" d="M134.27 112.21c-2.52 19.1-3.67 50.07 10.12 71.79 10.09 15.89 26.74 27.5 43.19 35.73"/>
            <path d="m189.08 216.56 7.58 7.4-10.54-1.05z"/>
        </g>
    </g>
</svg>
