<svg xmlns="http://www.w3.org/2000/svg" width="940" height="188pt" viewBox="0 0 705.13 188">
    <g class="graph">
        <path fill="#fff" stroke="transparent" d="M0 188V0h705.13v188z"/>
        <g class="node" transform="translate(4 184)">
            <ellipse cx="326.74" cy="-162" fill="none" stroke="#000" rx="87.99" ry="18"/>
            <text x="326.74" y="-158.3" font-family="Times,serif" font-size="14" text-anchor="middle">:feature:settings</text>
        </g>
        <g class="node" transform="translate(4 184)">
            <ellipse cx="173.74" cy="-90" fill="none" stroke="#000" rx="45.49" ry="18"/>
            <text x="173.74" y="-86.3" font-family="Times,serif" font-size="14" text-anchor="middle">:core:ui</text>
        </g>
        <g stroke="red" stroke-width="2" class="edge">
            <path fill="none" d="M296.4 38.71c-24.06 11.01-56.21 25.72-80.98 37.05"/>
            <path fill="red" d="m216.87 78.95-10.55.97 7.64-7.34z"/>
        </g>
        <g class="node" transform="translate(4 184)">
            <ellipse cx="100.74" cy="-18" fill="none" stroke="#000" rx="100.98" ry="18"/>
            <text x="100.74" y="-14.3" font-family="Times,serif" font-size="14" text-anchor="middle">:core:designsystem</text>
        </g>
        <g stroke="#000" class="edge">
            <path fill="none" d="M260.66 32.9c-52.36 8.83-118 23.4-136.92 43.1-15.61 16.25-19.72 42.01-20.3 61.64"/>
            <path d="m106.94 137.83-3.52 9.99-3.48-10z"/>
        </g>
        <g class="node" transform="translate(4 184)">
            <ellipse cx="326.74" cy="-90" fill="none" stroke="#000" rx="89.08" ry="18"/>
            <text x="326.74" y="-86.3" font-family="Times,serif" font-size="14" text-anchor="middle">:feature:common</text>
        </g>
        <g stroke="#000" class="edge">
            <path fill="none" d="M330.74 40.3v25.59"/>
            <path d="m334.24 65.9-3.5 10-3.5-10z"/>
        </g>
        <g class="node" transform="translate(4 184)">
            <ellipse cx="621.74" cy="-18" fill="none" stroke="#000" rx="75.29" ry="18"/>
            <text x="621.74" y="-14.3" font-family="Times,serif" font-size="14" text-anchor="middle">:core:common</text>
        </g>
        <g stroke="#000" class="edge">
            <path fill="none" d="M412.8 28.57C484.65 35.2 581.68 48.95 608.74 76c15.86 15.86 19.33 41.66 19.29 61.41"/>
            <path d="m631.52 137.78-3.82 9.88-3.18-10.11z"/>
        </g>
        <g class="node" transform="translate(4 184)">
            <ellipse cx="514.74" cy="-90" fill="none" stroke="#000" rx="81.49" ry="18"/>
            <text x="514.74" y="-86.3" font-family="Times,serif" font-size="14" text-anchor="middle">:core:datastore</text>
        </g>
        <g stroke="#000" class="edge">
            <path fill="none" d="M371.07 38.02c28.82 10.73 67.76 25.22 98.41 36.64"/>
            <path d="m470.97 71.48 8.15 6.77-10.59-.21z"/>
        </g>
        <g stroke="#000" class="edge">
            <path fill="none" d="M161.18 110.88c-9.35 8.96-21.2 20.33-31.63 30.33"/>
            <path d="m131.9 143.81-9.64 4.39 4.79-9.44z"/>
        </g>
        <g class="node" transform="translate(4 184)">
            <ellipse cx="297.74" cy="-18" fill="none" stroke="#000" rx="77.99" ry="18"/>
            <text x="297.74" y="-14.3" font-family="Times,serif" font-size="14" text-anchor="middle">:core:analytics</text>
        </g>
        <g stroke="red" stroke-width="2" class="edge">
            <path fill="none" d="M202.83 109.17c17.8 10.04 41.98 23.69 61.97 34.98"/>
            <path fill="red" d="m266.67 141.18 6.99 7.97-10.43-1.87z"/>
        </g>
        <g class="node" transform="translate(4 184)">
            <ellipse cx="461.74" cy="-18" fill="none" stroke="#000" rx="64.99" ry="18"/>
            <text x="461.74" y="-14.3" font-family="Times,serif" font-size="14" text-anchor="middle">:core:model</text>
        </g>
        <g stroke="#000" class="edge">
            <path fill="none" d="M211.95 106.02c6.86 2.08 14.03 4.17 20.79 5.98 16.74 4.48 110.86 25.69 174.23 39.88"/>
            <path d="m407.87 148.49 9 5.6-10.53 1.23z"/>
        </g>
        <g stroke="#000" class="edge">
            <path fill="none" d="M543.56 111.24c14.58 9.54 33.21 21.72 49.04 32.08"/>
            <path d="m594.61 140.45 6.45 8.4-10.29-2.54z"/>
        </g>
        <g stroke="#000" class="edge">
            <path fill="none" d="M505.91 111.95c-6.38 8.42-14.21 18.77-21.27 28.08"/>
            <path d="m487.28 142.35-8.83 5.86 3.25-10.08z"/>
        </g>
    </g>
</svg>
