<svg xmlns="http://www.w3.org/2000/svg" width="1196" height="260pt" viewBox="0 0 896.78 260">
    <g class="graph">
        <path fill="#fff" stroke="transparent" d="M0 260V0h896.78v260z"/>
        <g class="node" transform="translate(4 256)">
            <ellipse cx="510.74" cy="-234" fill="none" stroke="#000" rx="79.09" ry="18"/>
            <text x="510.74" y="-230.3" font-family="Times,serif" font-size="14" text-anchor="middle">:feature:player</text>
        </g>
        <g class="node" transform="translate(4 256)">
            <ellipse cx="350.74" cy="-162" fill="none" stroke="#000" rx="45.49" ry="18"/>
            <text x="350.74" y="-158.3" font-family="Times,serif" font-size="14" text-anchor="middle">:core:ui</text>
        </g>
        <g stroke="#000" class="edge">
            <path fill="none" d="M480.02 38.19c-25.54 11.17-60.26 26.36-86.67 37.92"/>
            <path d="m394.59 79.38-10.56.81 7.76-7.22z"/>
        </g>
        <g class="node" transform="translate(4 256)">
            <ellipse cx="100.74" cy="-90" fill="none" stroke="#000" rx="100.98" ry="18"/>
            <text x="100.74" y="-86.3" font-family="Times,serif" font-size="14" text-anchor="middle">:core:designsystem</text>
        </g>
        <g stroke="#000" class="edge">
            <path fill="none" d="M456.68 34.36C413.16 43.6 352.44 58.03 300.74 76c-55.72 19.37-117.24 48.69-156.23 68.32"/>
            <path d="m146.09 147.45-10.5 1.4 7.33-7.64z"/>
        </g>
        <g class="node" transform="translate(4 256)">
            <ellipse cx="799.74" cy="-162" fill="none" stroke="#000" rx="89.08" ry="18"/>
            <text x="799.74" y="-158.3" font-family="Times,serif" font-size="14" text-anchor="middle">:feature:common</text>
        </g>
        <g stroke="#000" class="edge">
            <path fill="none" d="M566.74 35.6c48.25 11.68 120.22 29.11 172.19 41.7"/>
            <path d="m739.82 73.92 8.9 5.75-10.55 1.05z"/>
        </g>
        <g class="node" transform="translate(4 256)">
            <ellipse cx="617.74" cy="-162" fill="none" stroke="#000" rx="74.99" ry="18"/>
            <text x="617.74" y="-158.3" font-family="Times,serif" font-size="14" text-anchor="middle">:core:network</text>
        </g>
        <g stroke="red" stroke-width="2" class="edge">
            <path fill="none" d="M539.56 39.24c14.58 9.54 33.21 21.72 49.04 32.08"/>
            <path fill="red" d="m590.61 68.45 6.45 8.4-10.29-2.54z"/>
        </g>
        <g class="node" transform="translate(4 256)">
            <ellipse cx="510.74" cy="-90" fill="none" stroke="#000" rx="78.79" ry="18"/>
            <text x="510.74" y="-86.3" font-family="Times,serif" font-size="14" text-anchor="middle">:core:database</text>
        </g>
        <g stroke="#000" class="edge">
            <path fill="none" d="M514.74 40.13v97.48"/>
            <path d="m518.24 137.81-3.5 10-3.5-10z"/>
        </g>
        <g stroke="#000" class="edge">
            <path fill="none" d="M318.66 105.1c-39.85 11.16-104.7 29.32-152.56 42.72"/>
            <path d="m167.03 151.19-10.57-.67 8.69-6.07z"/>
        </g>
        <g class="node" transform="translate(4 256)">
            <ellipse cx="297.74" cy="-90" fill="none" stroke="#000" rx="77.99" ry="18"/>
            <text x="297.74" y="-86.3" font-family="Times,serif" font-size="14" text-anchor="middle">:core:analytics</text>
        </g>
        <g stroke="#000" class="edge">
            <path fill="none" d="M342.18 111.59c-6.37 8.42-14.25 18.83-21.36 28.21"/>
            <path d="m323.41 142.18-8.83 5.86 3.25-10.08z"/>
        </g>
        <g class="node" transform="translate(4 256)">
            <ellipse cx="578.74" cy="-18" fill="none" stroke="#000" rx="64.99" ry="18"/>
            <text x="578.74" y="-14.3" font-family="Times,serif" font-size="14" text-anchor="middle">:core:model</text>
        </g>
        <g stroke="#000" class="edge">
            <path fill="none" d="M364.28 111.84c12.09 19.93 34.75 52.83 62.46 72.16 28.03 19.55 63.89 32.4 94.15 40.54"/>
            <path d="m522.11 221.24 8.81 5.88-10.56.9z"/>
        </g>
        <g stroke="#000" class="edge">
            <path fill="none" d="M618.85 112.25c-3.21 18.07-8.9 47.19-16.11 71.75-2.59 8.82-5.95 18.26-9.18 26.69"/>
            <path d="m596.8 212.01-6.91 8.03.4-10.59z"/>
        </g>
        <g class="node" transform="translate(4 256)">
            <ellipse cx="765.74" cy="-18" fill="none" stroke="#000" rx="75.29" ry="18"/>
            <text x="765.74" y="-14.3" font-family="Times,serif" font-size="14" text-anchor="middle">:core:common</text>
        </g>
        <g stroke="#000" class="edge">
            <path fill="none" d="M677.17 106.17c55.72 11.78 134.65 30.22 143.57 41.83 15.9 20.69-3.11 46.86-22.28 65.45"/>
            <path d="m800.62 216.22-9.72 4.21 4.98-9.36z"/>
        </g>
        <g class="node" transform="translate(4 256)">
            <ellipse cx="726.74" cy="-90" fill="none" stroke="#000" rx="81.49" ry="18"/>
            <text x="726.74" y="-86.3" font-family="Times,serif" font-size="14" text-anchor="middle">:core:datastore</text>
        </g>
        <g stroke="red" stroke-width="2" class="edge">
            <path fill="none" d="M646.75 111.06c14.85 9.54 33.88 21.76 50.07 32.15"/>
            <path fill="red" d="m698.95 140.42 6.52 8.35-10.3-2.46z"/>
        </g>
        <g stroke="#000" class="edge">
            <path fill="none" d="M531.2 183.95c8.44 8.68 18.86 19.41 28.12 28.94"/>
            <path d="m561.97 210.6 4.46 9.61-9.48-4.73z"/>
        </g>
        <g stroke="red" stroke-width="2" class="edge">
            <path fill="none" d="M697.9 182.54c-21.94 10.37-50.94 24.08-74.35 35.16"/>
            <path fill="red" d="m624.76 221-10.53 1.11 7.54-7.44z"/>
        </g>
        <g stroke="#000" class="edge">
            <path fill="none" d="M740.18 183.95c4.49 8.04 9.95 17.85 14.95 26.82"/>
            <path d="m758.31 209.29 1.81 10.43-7.93-7.03z"/>
        </g>
    </g>
</svg>
