<svg xmlns="http://www.w3.org/2000/svg" width="542pt" height="188pt" viewBox="0 0 542.39 188">
    <g class="graph">
        <path fill="#fff" stroke="transparent" d="M0 188V0h542.39v188z"/>
        <g class="node" transform="translate(4 184)">
            <ellipse cx="277.39" cy="-162" fill="none" stroke="#000" rx="74.99" ry="18"/>
            <text x="277.39" y="-158.3" font-family="Times,serif" font-size="14" text-anchor="middle">:core:network</text>
        </g>
        <g class="node" transform="translate(4 184)">
            <ellipse cx="75.39" cy="-18" fill="none" stroke="#000" rx="75.29" ry="18"/>
            <text x="75.39" y="-14.3" font-family="Times,serif" font-size="14" text-anchor="middle">:core:common</text>
        </g>
        <g stroke="#000" class="edge">
            <path fill="none" d="M252.39 38.72c-17.96 10.06-41.27 23.73-61 37.28-30.26 20.79-62.93 47.25-85.12 65.9"/>
            <path d="m108.48 144.61-9.89 3.78 5.38-9.13z"/>
        </g>
        <g class="node" transform="translate(4 184)">
            <ellipse cx="469.39" cy="-18" fill="none" stroke="#000" rx="64.99" ry="18"/>
            <text x="469.39" y="-14.3" font-family="Times,serif" font-size="14" text-anchor="middle">:core:model</text>
        </g>
        <g stroke="#000" class="edge">
            <path fill="none" d="M311.03 38.63c17.98 9.92 41.1 23.47 60.36 37.37 28.11 20.27 57.67 46.71 77.69 65.49"/>
            <path d="m451.66 139.12 4.86 9.41-9.67-4.33z"/>
        </g>
        <g class="node" transform="translate(4 184)">
            <ellipse cx="277.39" cy="-90" fill="none" stroke="#000" rx="81.49" ry="18"/>
            <text x="277.39" y="-86.3" font-family="Times,serif" font-size="14" text-anchor="middle">:core:datastore</text>
        </g>
        <g stroke="red" stroke-width="2" class="edge">
            <path fill="none" d="M281.39 40.3v25.59"/>
            <path fill="red" d="m284.89 65.9-3.5 10-3.5-10z"/>
        </g>
        <g stroke="#000" class="edge">
            <path fill="none" d="M239.54 109.5c-31.77 11.01-75.58 26.19-109.35 37.9"/>
            <path d="m131.1 150.79-10.6-.04 8.31-6.58z"/>
        </g>
        <g stroke="#000" class="edge">
            <path fill="none" d="M321.64 109.67c30.5 11.12 72.48 26.43 104.55 38.12"/>
            <path d="m427.61 144.58 8.2 6.72-10.6-.14z"/>
        </g>
        <g class="node" transform="translate(4 184)">
            <ellipse cx="277.39" cy="-18" fill="none" stroke="#000" rx="108.58" ry="18"/>
            <text x="277.39" y="-14.3" font-family="Times,serif" font-size="14" text-anchor="middle">:core:datastore-proto</text>
        </g>
        <g stroke="red" stroke-width="2" class="edge">
            <path fill="none" d="M281.39 112.3v25.59"/>
            <path fill="red" d="m284.89 137.9-3.5 10-3.5-10z"/>
        </g>
    </g>
</svg>
