<svg xmlns="http://www.w3.org/2000/svg" width="1190pt" height="404pt" viewBox="0 0 1190.48 404">
    <g class="graph">
        <path fill="#fff" stroke="transparent" d="M0 404V0h1190.48v404z"/>
        <g class="node" transform="translate(4 400)">
            <ellipse cx="510.74" cy="-378" fill="none" stroke="#000" rx="94.78" ry="18"/>
            <text x="510.74" y="-374.3" font-family="Times,serif" font-size="14" text-anchor="middle">:feature:download</text>
        </g>
        <g class="node" transform="translate(4 400)">
            <ellipse cx="350.74" cy="-306" fill="none" stroke="#000" rx="45.49" ry="18"/>
            <text x="350.74" y="-302.3" font-family="Times,serif" font-size="14" text-anchor="middle">:core:ui</text>
        </g>
        <g stroke="#000" class="edge">
            <path fill="none" d="M478.83 38.71c-25.43 11.13-59.52 26.04-85.53 37.42"/>
            <path d="m394.67 79.35-10.56.8 7.76-7.21z"/>
        </g>
        <g class="node" transform="translate(4 400)">
            <ellipse cx="100.74" cy="-234" fill="none" stroke="#000" rx="100.98" ry="18"/>
            <text x="100.74" y="-230.3" font-family="Times,serif" font-size="14" text-anchor="middle">:core:designsystem</text>
        </g>
        <g stroke="#000" class="edge">
            <path fill="none" d="M451.59 35.45C408.5 44.71 350.45 58.72 300.74 76c-55.72 19.37-117.24 48.69-156.23 68.32"/>
            <path d="m146.09 147.45-10.5 1.4 7.33-7.64z"/>
        </g>
        <g class="node" transform="translate(4 400)">
            <ellipse cx="978.74" cy="-306" fill="none" stroke="#000" rx="89.08" ry="18"/>
            <text x="978.74" y="-302.3" font-family="Times,serif" font-size="14" text-anchor="middle">:feature:common</text>
        </g>
        <g stroke="#000" class="edge">
            <path fill="none" d="M589.6 33.06C664.41 43.28 782.67 59.84 884.74 76c7.62 1.21 15.56 2.51 23.48 3.84"/>
            <path d="m908.93 76.41 9.28 5.12-10.44 1.78z"/>
        </g>
        <g class="node" transform="translate(4 400)">
            <ellipse cx="790.74" cy="-306" fill="none" stroke="#000" rx="81.49" ry="18"/>
            <text x="790.74" y="-302.3" font-family="Times,serif" font-size="14" text-anchor="middle">:core:download</text>
        </g>
        <g stroke="red" stroke-width="2" class="edge">
            <path fill="none" d="M569.73 36.75c46.93 11.73 114.38 28.59 163.18 40.79"/>
            <path fill="red" d="m733.87 74.17 8.85 5.82-10.55.97z"/>
        </g>
        <g class="node" transform="translate(4 400)">
            <ellipse cx="510.74" cy="-162" fill="none" stroke="#000" rx="78.79" ry="18"/>
            <text x="510.74" y="-158.3" font-family="Times,serif" font-size="14" text-anchor="middle">:core:database</text>
        </g>
        <g stroke="#000" class="edge">
            <path fill="none" d="M514.74 40.15v169.46"/>
            <path d="m518.24 209.77-3.5 10-3.5-10z"/>
        </g>
        <g stroke="#000" class="edge">
            <path fill="none" d="M318.66 105.1c-39.85 11.16-104.7 29.32-152.56 42.72"/>
            <path d="m167.03 151.19-10.57-.67 8.69-6.07z"/>
        </g>
        <g class="node" transform="translate(4 400)">
            <ellipse cx="297.74" cy="-234" fill="none" stroke="#000" rx="77.99" ry="18"/>
            <text x="297.74" y="-230.3" font-family="Times,serif" font-size="14" text-anchor="middle">:core:analytics</text>
        </g>
        <g stroke="#000" class="edge">
            <path fill="none" d="M342.18 111.59c-6.37 8.42-14.25 18.83-21.36 28.21"/>
            <path d="m323.41 142.18-8.83 5.86 3.25-10.08z"/>
        </g>
        <g class="node" transform="translate(4 400)">
            <ellipse cx="471.74" cy="-18" fill="none" stroke="#000" rx="64.99" ry="18"/>
            <text x="471.74" y="-14.3" font-family="Times,serif" font-size="14" text-anchor="middle">:core:model</text>
        </g>
        <g stroke="#000" class="edge">
            <path fill="none" d="M366.81 111.6c7.02 10.16 15.69 23.63 21.93 36.4 22.33 45.72 20.27 60.31 38 108 12.71 34.18 28.18 73.27 38.3 98.5"/>
            <path d="m468.41 353.51.48 10.58-6.97-7.97z"/>
        </g>
        <g class="node" transform="translate(4 400)">
            <ellipse cx="865.74" cy="-18" fill="none" stroke="#000" rx="75.29" ry="18"/>
            <text x="865.74" y="-14.3" font-family="Times,serif" font-size="14" text-anchor="middle">:core:common</text>
        </g>
        <g stroke="#000" class="edge">
            <path fill="none" d="M800.17 112c10.74 33.97 35.07 112.74 51.57 180 5.04 20.54 9.74 43.99 13.07 61.67"/>
            <path d="m868.32 353.37-1.62 10.48-5.26-9.2z"/>
        </g>
        <g class="node" transform="translate(4 400)">
            <ellipse cx="958.74" cy="-90" fill="none" stroke="#000" rx="68.79" ry="18"/>
            <text x="958.74" y="-86.3" font-family="Times,serif" font-size="14" text-anchor="middle">:core:ffmpeg</text>
        </g>
        <g stroke="#000" class="edge">
            <path fill="none" d="M829.84 110.47c16.94 8.93 36.46 21.57 49.9 37.53 33.39 39.64 18.67 62.78 44 108 5.36 9.57 12.19 19.41 18.62 27.98"/>
            <path d="m945.26 282.01 3.34 10.06-8.88-5.78z"/>
        </g>
        <g class="node" transform="translate(4 400)">
            <ellipse cx="720.74" cy="-234" fill="none" stroke="#000" rx="57.39" ry="18"/>
            <text x="720.74" y="-230.3" font-family="Times,serif" font-size="14" text-anchor="middle">:core:data</text>
        </g>
        <g stroke="red" stroke-width="2" class="edge">
            <path fill="none" d="M777.8 111.95c-8.9 8.89-19.95 19.94-29.65 29.64"/>
            <path fill="red" d="m750.59 144.1-9.54 4.59 4.59-9.54z"/>
        </g>
        <g class="node" transform="translate(4 400)">
            <ellipse cx="1055.74" cy="-162" fill="none" stroke="#000" rx="126.98" ry="18"/>
            <text x="1055.74" y="-158.3" font-family="Times,serif" font-size="14" text-anchor="middle">:okdownload:okdownload</text>
        </g>
        <g stroke="#000" class="edge">
            <path fill="none" d="M833.4 109.88c24.59 9.9 56.86 23.69 84.34 38.12 38.76 20.34 81 47.51 109.25 66.46"/>
            <path d="m1028.95 211.56 6.34 8.5-10.25-2.7z"/>
        </g>
        <g stroke="#000" class="edge">
            <path fill="none" d="M510.04 256.13c-6.68 24.31-18.97 69.05-26.88 97.86"/>
            <path d="m486.49 355.09-6.03 8.72-.72-10.57z"/>
        </g>
        <g stroke="#000" class="edge">
            <path fill="none" d="M941.17 327.24c-12.35 9.29-28.04 21.1-41.56 31.28"/>
            <path d="m901.61 361.39-10.09 3.22 5.88-8.81z"/>
        </g>
        <g stroke="#000" class="edge">
            <path fill="none" d="M686.71 179.68c-33.42 11.14-82.37 27.45-119.51 39.83"/>
            <path d="m568.14 222.89-10.59-.16 8.38-6.48z"/>
        </g>
        <g stroke="#000" class="edge">
            <path fill="none" d="M757.09 181.1c17.34 8.97 37.9 22.07 51.65 38.9 8.82 10.79 37.18 91.35 51.91 134.26"/>
            <path d="m863.99 353.21-.07 10.59-6.55-8.33z"/>
        </g>
        <g class="node" transform="translate(4 400)">
            <ellipse cx="663.74" cy="-90" fill="none" stroke="#000" rx="81.49" ry="18"/>
            <text x="663.74" y="-86.3" font-family="Times,serif" font-size="14" text-anchor="middle">:core:datastore</text>
        </g>
        <g stroke="#000" class="edge">
            <path fill="none" d="M688.57 180.01c-17.8 8.46-37.59 21.42-47.83 39.99-11 19.96-1.67 44.96 8.93 63.39"/>
            <path d="m652.78 281.75 2.27 10.35-8.23-6.67z"/>
        </g>
        <g class="node" transform="translate(4 400)">
            <ellipse cx="720.74" cy="-162" fill="none" stroke="#000" rx="74.99" ry="18"/>
            <text x="720.74" y="-158.3" font-family="Times,serif" font-size="14" text-anchor="middle">:core:network</text>
        </g>
        <g stroke="red" stroke-width="2" class="edge">
            <path fill="none" d="M724.74 184.3v25.59"/>
            <path fill="red" d="m728.24 209.9-3.5 10-3.5-10z"/>
        </g>
        <g stroke="#000" class="edge">
            <path fill="none" d="M1060.89 256.02c.37 19.79-2.14 52.27-20.15 71.98-23.08 25.27-57.94 38.6-90.18 45.6"/>
            <path d="m951.15 377.05-10.49-1.48 9.12-5.39z"/>
        </g>
        <g stroke="#000" class="edge">
            <path fill="none" d="M627.49 325.67c-30.49 11.12-72.47 26.43-104.55 38.12"/>
            <path d="m523.92 367.16-10.59.14 8.2-6.72z"/>
        </g>
        <g stroke="#000" class="edge">
            <path fill="none" d="M709.6 325.5c31.76 11.01 75.57 26.19 109.35 37.9"/>
            <path d="m820.33 360.17 8.3 6.58-10.59.04z"/>
        </g>
        <g class="node" transform="translate(4 400)">
            <ellipse cx="663.74" cy="-18" fill="none" stroke="#000" rx="108.58" ry="18"/>
            <text x="663.74" y="-14.3" font-family="Times,serif" font-size="14" text-anchor="middle">:core:datastore-proto</text>
        </g>
        <g stroke="red" stroke-width="2" class="edge">
            <path fill="none" d="M667.74 328.3v25.59"/>
            <path fill="red" d="m671.24 353.9-3.5 10-3.5-10z"/>
        </g>
        <g stroke="#000" class="edge">
            <path fill="none" d="M675.73 251.68c-29.58 8.84-67.36 22.3-97.99 40.32-30.4 17.88-60.21 45.39-79.68 65.08"/>
            <path d="m500.36 359.74-9.48 4.73 4.46-9.61z"/>
        </g>
        <g stroke="#000" class="edge">
            <path fill="none" d="M741.34 255.87c17.77 18 46.87 47.29 72.4 72.13 9.99 9.72 21.13 20.31 30.82 29.44"/>
            <path d="m847.08 355.01 4.89 9.4-9.68-4.3z"/>
        </g>
        <g stroke="red" stroke-width="2" class="edge">
            <path fill="none" d="M710.94 255.95c-6.93 8.51-15.46 18.98-23.1 28.37"/>
            <path fill="red" d="m690.44 286.67-9.03 5.54 3.6-9.96z"/>
        </g>
    </g>
</svg>
