<svg xmlns="http://www.w3.org/2000/svg" width="893pt" height="260pt" viewBox="0 0 893.28 260">
    <g class="graph">
        <path fill="#fff" stroke="transparent" d="M0 260V0h893.28v260z"/>
        <g class="node" transform="translate(4 256)">
            <ellipse cx="460.74" cy="-234" fill="none" stroke="#000" rx="75.29" ry="18"/>
            <text x="460.74" y="-230.3" font-family="Times,serif" font-size="14" text-anchor="middle">:feature:home</text>
        </g>
        <g class="node" transform="translate(4 256)">
            <ellipse cx="319.74" cy="-162" fill="none" stroke="#000" rx="45.49" ry="18"/>
            <text x="319.74" y="-158.3" font-family="Times,serif" font-size="14" text-anchor="middle">:core:ui</text>
        </g>
        <g stroke="#000" class="edge">
            <path fill="none" d="M433.45 38.54c-21.68 10.76-50.61 25.12-73.32 36.39"/>
            <path d="m361.65 78.09-10.51 1.31 7.4-7.58z"/>
        </g>
        <g class="node" transform="translate(4 256)">
            <ellipse cx="100.74" cy="-90" fill="none" stroke="#000" rx="100.98" ry="18"/>
            <text x="100.74" y="-86.3" font-family="Times,serif" font-size="14" text-anchor="middle">:core:designsystem</text>
        </g>
        <g stroke="#000" class="edge">
            <path fill="none" d="M409.85 34.37C370.17 43.44 315.68 57.65 269.74 76c-46.97 18.76-97.71 47.54-130.34 67.26"/>
            <path d="m141.06 146.35-10.36 2.22 6.71-8.2z"/>
        </g>
        <g class="node" transform="translate(4 256)">
            <ellipse cx="680.74" cy="-162" fill="none" stroke="#000" rx="89.08" ry="18"/>
            <text x="680.74" y="-158.3" font-family="Times,serif" font-size="14" text-anchor="middle">:feature:common</text>
        </g>
        <g stroke="#000" class="edge">
            <path fill="none" d="M508.21 36.83c34.71 11.05 83.59 26.6 121.11 38.54"/>
            <path d="m630.63 72.11 8.46 6.37-10.59.3z"/>
        </g>
        <g class="node" transform="translate(4 256)">
            <ellipse cx="460.74" cy="-162" fill="none" stroke="#000" rx="74.99" ry="18"/>
            <text x="460.74" y="-158.3" font-family="Times,serif" font-size="14" text-anchor="middle">:core:network</text>
        </g>
        <g stroke="red" stroke-width="2" class="edge">
            <path fill="none" d="M464.74 40.3v25.59"/>
            <path fill="red" d="m468.24 65.9-3.5 10-3.5-10z"/>
        </g>
        <g class="node" transform="translate(4 256)">
            <ellipse cx="588.74" cy="-90" fill="none" stroke="#000" rx="81.49" ry="18"/>
            <text x="588.74" y="-86.3" font-family="Times,serif" font-size="14" text-anchor="middle">:core:datastore</text>
        </g>
        <g stroke="#000" class="edge">
            <path fill="none" d="M497.7 38.29c16.9 9.1 36.84 21.96 51.04 37.71 16.34 18.12 28.06 43.42 35.28 62.41"/>
            <path d="m587.36 137.37.11 10.59-6.69-8.21z"/>
        </g>
        <g stroke="#000" class="edge">
            <path fill="none" d="M289.52 105.94c-34.23 10.94-87.48 27.96-128.04 40.92"/>
            <path d="m162.31 150.27-10.59-.29 8.46-6.38z"/>
        </g>
        <g class="node" transform="translate(4 256)">
            <ellipse cx="297.74" cy="-90" fill="none" stroke="#000" rx="77.99" ry="18"/>
            <text x="297.74" y="-86.3" font-family="Times,serif" font-size="14" text-anchor="middle">:core:analytics</text>
        </g>
        <g stroke="#000" class="edge">
            <path fill="none" d="m318.42 111.95-8.17 25.97"/>
            <path d="m313.51 139.23-6.34 8.49-.34-10.58z"/>
        </g>
        <g class="node" transform="translate(4 256)">
            <ellipse cx="416.74" cy="-18" fill="none" stroke="#000" rx="64.99" ry="18"/>
            <text x="416.74" y="-14.3" font-family="Times,serif" font-size="14" text-anchor="middle">:core:model</text>
        </g>
        <g stroke="#000" class="edge">
            <path fill="none" d="M347.22 109.43c13.74 9.49 30.5 23 41.52 38.57 13.23 18.68 21.54 43.41 26.36 62.06"/>
            <path d="m418.55 209.44-1.05 10.54-5.75-8.9z"/>
        </g>
        <g stroke="red" stroke-width="2" class="edge">
            <path fill="none" d="M493.47 110.71c18.07 9.88 41.6 22.75 61.21 33.48"/>
            <path fill="red" d="m556.57 141.23 7.1 7.87-10.45-1.73z"/>
        </g>
        <g stroke="#000" class="edge">
            <path fill="none" d="M459.43 112.13c-7.53 24.31-21.39 69.05-30.32 97.86"/>
            <path d="m432.37 211.29-6.3 8.52-.39-10.59z"/>
        </g>
        <g class="node" transform="translate(4 256)">
            <ellipse cx="574.74" cy="-18" fill="none" stroke="#000" rx="75.29" ry="18"/>
            <text x="574.74" y="-14.3" font-family="Times,serif" font-size="14" text-anchor="middle">:core:common</text>
        </g>
        <g stroke="#000" class="edge">
            <path fill="none" d="M469 112.24c5.39 19.12 16.15 50.12 33.74 71.76 10.24 12.59 24.21 23.49 37.39 32.08"/>
            <path d="m541.99 213.11 6.63 8.27-10.33-2.33z"/>
        </g>
        <g stroke="#000" class="edge">
            <path fill="none" d="M555.42 182.19c-26.51 10.79-62.23 25.33-90.22 36.72"/>
            <path d="m466.23 222.27-10.59.52 7.95-7.01z"/>
        </g>
        <g stroke="#000" class="edge">
            <path fill="none" d="M589.28 184.3c-1.54 7.72-3.4 16.99-5.12 25.59"/>
            <path d="m587.56 210.78-5.4 9.12-1.47-10.5z"/>
        </g>
        <g class="node" transform="translate(4 256)">
            <ellipse cx="776.74" cy="-18" fill="none" stroke="#000" rx="108.58" ry="18"/>
            <text x="776.74" y="-14.3" font-family="Times,serif" font-size="14" text-anchor="middle">:core:datastore-proto</text>
        </g>
        <g stroke="red" stroke-width="2" class="edge">
            <path fill="none" d="M632.61 181.85c28.11 10.46 66.01 24.57 96.44 35.9"/>
            <path fill="red" d="m730.5 214.56 8.15 6.77-10.6-.21z"/>
        </g>
    </g>
</svg>
